<?xml version="1.0" encoding="UTF-8"?>
<svg version="1.1" xmlns="http://www.w3.org/2000/svg" width="1024" height="1024">
<path d="M0 0 C337.92 0 675.84 0 1024 0 C1024 337.92 1024 675.84 1024 1024 C686.08 1024 348.16 1024 0 1024 C0 686.08 0 348.16 0 0 Z " fill="#F9F9F9" transform="translate(0,0)"/>
<path d="M0 0 C12.86060058 5.18479168 20.88954585 25.45031584 27 37 C29.16874252 36.49396008 30.99967627 36.00016187 33 35 C33.99 35.66 34.98 36.32 36 37 C36.99 37 37.98 37 39 37 C39.99 37 40.98 37 42 37 C44.07166736 35.84385703 46.10819583 34.62438912 48.125 33.375 C53.5051957 30.17374426 58.91159367 27.65467533 64.8125 25.5625 C65.4926416 25.31612793 66.1727832 25.06975586 66.87353516 24.81591797 C71.87128187 23.11699803 76.74539105 22.40220464 82 22 C82.66922131 43.14739334 80.71979639 62.62825695 75 83 C74.33383897 85.49388492 73.71930198 87.98695164 73.125 90.5 C72.83882812 91.6653125 72.55265625 92.830625 72.2578125 94.03125 C71.68617878 96.97370189 71.68617878 96.97370189 73.3046875 98.90625 C74.9438461 100.18070896 74.9438461 100.18070896 77 100 C81.43474355 90.11052188 84.22352617 80.47253143 86.23828125 69.82421875 C87 66 87 66 88 64 C94.05037033 62.28581921 100.52029606 62.81570458 106.75 62.8125 C107.9875 62.80025391 109.225 62.78800781 110.5 62.77539062 C117.33228587 62.76448804 123.40381573 63.19390193 130 65 C129.36399133 68.87258615 128.19288043 72.15812846 126.625 75.75 C124.4796817 80.77439765 122.64880989 85.79323192 121 91 C122.98 91 124.96 91 127 91 C127 94.3 127 97.6 127 101 C127.7204248 101.12439453 128.44084961 101.24878906 129.18310547 101.37695312 C131.98827016 101.99740557 134.4197361 102.86811644 137.0703125 103.96875 C138.040896 104.3709375 139.01147949 104.773125 140.01147461 105.1875 C141.03893799 105.620625 142.06640137 106.05375 143.125 106.5 C144.18146729 106.9434375 145.23793457 107.386875 146.32641602 107.84375 C153.25301389 110.7762163 160.12597482 113.80920592 166.9375 117 C168.1433374 117.55977539 168.1433374 117.55977539 169.37353516 118.13085938 C174.87744296 120.75488592 174.87744296 120.75488592 176 123 C176.10880873 125.62347958 176.1573237 128.22080025 176.16113281 130.8449707 C176.16609772 131.65699448 176.17106262 132.46901825 176.17617798 133.3056488 C176.19085743 136.01236822 176.19762246 138.71902841 176.203125 141.42578125 C176.20595238 142.35861624 176.20877975 143.29145123 176.21169281 144.25255394 C176.22673333 149.22021138 176.23592314 154.1878396 176.24023438 159.15551758 C176.24456823 163.21192678 176.258251 167.26811717 176.28125 171.32446289 C176.4451546 200.800257 176.55705534 230.27092398 169 259 C168.74162354 259.98419922 168.74162354 259.98419922 168.47802734 260.98828125 C164.2234203 276.6710064 157.55355736 291.71809155 150.75 306.4375 C150.44537842 307.10450928 150.14075684 307.77151855 149.8269043 308.45874023 C147.95697804 312.40994939 145.76545049 315.83111193 143.16088867 319.3371582 C141.48175411 321.74232866 140.30771072 324.37778525 139 327 C137.39417095 329.47689271 135.67418302 331.86364079 133.9375 334.25 C133.26750977 335.18585938 133.26750977 335.18585938 132.58398438 336.140625 C130.82989935 338.57379526 129.12447323 340.87552677 127 343 C117.87204076 342.17197778 108.014431 331.07075122 102.31103516 324.62597656 C96.39111122 317.28394799 92.00382002 308.48809844 88 300 C87.3361697 298.66525225 86.67014567 297.33158815 86 296 C85.87882812 296.61488281 85.75765625 297.22976563 85.6328125 297.86328125 C85.46523438 298.67152344 85.29765625 299.47976563 85.125 300.3125 C84.96257812 301.11300781 84.80015625 301.91351562 84.6328125 302.73828125 C84 305 84 305 82 308 C83.17459007 322.43766955 97.15549022 335.82344769 107.3359375 344.828125 C110.73345732 347.59795054 114.18829068 349.84242868 118 352 C117.13651139 356.53545256 114.48552598 359.07266055 111.375 362.3125 C110.82593994 362.89354492 110.27687988 363.47458984 109.71118164 364.07324219 C108.14777458 365.72233754 106.57456989 367.36157463 105 369 C104.35160156 369.68964844 103.70320313 370.37929688 103.03515625 371.08984375 C87.68431035 387.04121174 65.76501427 404.04134611 45 412 C39.28221814 404.55997248 34.56774263 396.98037313 30.3125 388.625 C29.49942383 387.07425781 29.49942383 387.07425781 28.66992188 385.4921875 C24.89807664 378.17599071 21.78375893 370.74337288 19 363 C18.71294189 362.20303711 18.42588379 361.40607422 18.13012695 360.58496094 C14.38601058 349.80171211 12.18874049 338.95419534 10.4375 327.6875 C5.43341535 295.74442998 -9.48119399 273.51246516 -34 253 C-38.76481532 249.00310637 -43.09578874 244.95624181 -47.10546875 240.1953125 C-48.43857629 238.65055696 -49.82165627 237.14823067 -51.23828125 235.6796875 C-74.16943865 211.76106399 -83.65300454 184.39521585 -86 152 C-92.02108756 163.59677959 -97.15713244 174.05433877 -97.125 187.4375 C-97.12757813 188.50871094 -97.13015625 189.57992187 -97.1328125 190.68359375 C-96.99270922 194.18205506 -96.50294768 197.53651935 -96 201 C-95.17020654 212.0718156 -95.83903776 218.93635996 -103.0546875 227.4140625 C-104.56656625 229.10380934 -106.09417443 230.7796064 -107.63671875 232.44140625 C-110.03330163 235.03605383 -112.35558576 237.66839562 -114.625 240.375 C-115.29789062 241.16648437 -115.97078125 241.95796875 -116.6640625 242.7734375 C-118.18504479 244.86762546 -118.18504479 244.86762546 -117.9765625 247.1015625 C-116.67235522 249.63694144 -115.17490882 250.52257211 -112.75 252 C-109.31591091 254.15794434 -106.11396228 256.3882897 -103 259 C-103.54723683 262.37462715 -104.0549 264.08235 -106 267 C-105.91666667 269.58333333 -105.91666667 269.58333333 -105 272 C-104.01 272.66 -103.02 273.32 -102 274 C-102.33 276.97 -102.66 279.94 -103 283 C-102.01257813 283.48855469 -101.02515625 283.97710938 -100.0078125 284.48046875 C-97 287 -97 287 -96.5546875 290.86328125 C-96.63151681 292.34820635 -96.73934289 293.83178989 -96.875 295.3125 C-97.42052536 301.92264234 -96.87647355 305.4861712 -93 311 C-87.66439627 315.13509289 -81.42796535 314.54976019 -75 314 C-71.33065427 313.46189762 -67.6862749 312.8032154 -64.05151367 312.06787109 C-56.03372912 310.47433287 -49.946307 310.36406207 -43 315 C-34.97028932 323.02971068 -31.86720854 335.02839562 -31.6875 346.0625 C-32.28666269 369.03040319 -44.21062397 386.59620104 -58 404 C-68.31066517 400.17507583 -76.70832934 393.02989469 -85 386 C-86.04047442 385.14438144 -87.08217566 384.29025291 -88.125 383.4375 C-98.93346158 374.53881648 -109.09393741 364.82255707 -118 354 C-118.62310059 353.25556641 -118.62310059 353.25556641 -119.25878906 352.49609375 C-150.96190969 314.51403679 -168.95872722 270.95310164 -175 222 C-175.09031998 221.27076324 -175.18063995 220.54152649 -175.2736969 219.79019165 C-176.29184253 210.22908204 -176.20313851 200.63875267 -176.23828125 191.03515625 C-176.24235678 190.09040373 -176.2464323 189.14565121 -176.25063133 188.17226982 C-176.27135243 183.18800968 -176.2857235 178.20377608 -176.29516602 173.21948242 C-176.30630723 168.07571878 -176.34083417 162.93237859 -176.38033772 157.78876591 C-176.40642513 153.82284218 -176.41484994 149.85702181 -176.41844749 145.89101982 C-176.42332009 143.99356607 -176.43495319 142.09611714 -176.45348549 140.19874763 C-176.47774852 137.55410292 -176.47693783 134.91059029 -176.4699707 132.26586914 C-176.48278076 131.48401749 -176.49559082 130.70216583 -176.50878906 129.8966217 C-176.47496329 126.38129198 -176.31012812 124.40418116 -174.13903809 121.57466125 C-171.60588157 119.70986818 -169.11424192 118.45597587 -166.23046875 117.1953125 C-165.1010083 116.69684814 -163.97154785 116.19838379 -162.80786133 115.68481445 C-161.01578247 114.9127063 -161.01578247 114.9127063 -159.1875 114.125 C-157.9577394 113.58921489 -156.72816628 113.05299927 -155.4987793 112.51635742 C-152.00422397 110.99885906 -148.50347544 109.49676781 -145 108 C-144.14051758 107.6292334 -143.28103516 107.2584668 -142.39550781 106.87646484 C-135.61575972 103.96428858 -129.43559128 101.45180215 -122 101 C-121.01 101.66 -120.02 102.32 -119 103 C-116.88719655 103.63292383 -116.88719655 103.63292383 -115 104 C-114.67 102.35 -114.34 100.7 -114 99 C-116.97 98.505 -116.97 98.505 -120 98 C-119.4740625 96.9171875 -119.4740625 96.9171875 -118.9375 95.8125 C-116.72379912 89.17139735 -121.38978118 82.52271725 -124.20507812 76.59375 C-127.55051491 69.33421266 -127.55051491 69.33421266 -127 65 C-114.24438369 62.19876661 -100.90902265 62.0875522 -88 64 C-85.78634987 68.8400147 -84.30610412 73.40932783 -83.125 78.625 C-81.61692732 85.01976518 -79.63390337 91.03788026 -77.1484375 97.1328125 C-75.97759607 100.05593362 -74.96885031 103.00456372 -74 106 C-73.34 106 -72.68 106 -72 106 C-71.505 104.02 -71.505 104.02 -71 102 C-70.67 102.33 -70.34 102.66 -70 103 C-69.57483638 96.51625474 -70.50514697 92.12221234 -72.85546875 86.109375 C-80.40179466 65.60809368 -81.58396473 43.61567901 -81 22 C-64.24486827 23.56343949 -50.3475317 30.69548552 -36 39 C-36.50700713 45.33758914 -38.09344488 51.0749372 -39.96484375 57.14453125 C-45.82379699 78.96636843 -44.75002534 101.54055094 -35.1484375 122.05859375 C-34.14650837 124.15263201 -34.14650837 124.15263201 -32 125 C-32 124.34 -32 123.68 -32 123 C-30 124 -30 124 -29 126 C-28.36256753 118.60578335 -30.1545192 113.30213318 -32.75390625 106.40234375 C-40.80580425 84.41738088 -34.8724843 59.51118803 -25.43188477 38.95166016 C-18.85612959 25.04344045 -10.99282323 10.99282323 0 0 Z " fill="#CF7F8D" transform="translate(505,285)"/>
<path d="M0 0 C12.86060058 5.18479168 20.88954585 25.45031584 27 37 C29.16874252 36.49396008 30.99967627 36.00016187 33 35 C33.99 35.66 34.98 36.32 36 37 C36.99 37 37.98 37 39 37 C39.99 37 40.98 37 42 37 C44.07166736 35.84385703 46.10819583 34.62438912 48.125 33.375 C53.5051957 30.17374426 58.91159367 27.65467533 64.8125 25.5625 C65.4926416 25.31612793 66.1727832 25.06975586 66.87353516 24.81591797 C71.87128187 23.11699803 76.74539105 22.40220464 82 22 C82.66922131 43.14739334 80.71979639 62.62825695 75 83 C74.33383897 85.49388492 73.71930198 87.98695164 73.125 90.5 C72.83882812 91.6653125 72.55265625 92.830625 72.2578125 94.03125 C71.68617878 96.97370189 71.68617878 96.97370189 73.3046875 98.90625 C74.9438461 100.18070896 74.9438461 100.18070896 77 100 C81.43474355 90.11052188 84.22352617 80.47253143 86.23828125 69.82421875 C87 66 87 66 88 64 C94.05037033 62.28581921 100.52029606 62.81570458 106.75 62.8125 C107.9875 62.80025391 109.225 62.78800781 110.5 62.77539062 C117.33228587 62.76448804 123.40381573 63.19390193 130 65 C129.36399133 68.87258615 128.19288043 72.15812846 126.625 75.75 C124.4796817 80.77439765 122.64880989 85.79323192 121 91 C122.98 91 124.96 91 127 91 C127 94.3 127 97.6 127 101 C127.7204248 101.12439453 128.44084961 101.24878906 129.18310547 101.37695312 C131.98827016 101.99740557 134.4197361 102.86811644 137.0703125 103.96875 C138.040896 104.3709375 139.01147949 104.773125 140.01147461 105.1875 C141.03893799 105.620625 142.06640137 106.05375 143.125 106.5 C144.18146729 106.9434375 145.23793457 107.386875 146.32641602 107.84375 C153.25301389 110.7762163 160.12597482 113.80920592 166.9375 117 C168.1433374 117.55977539 168.1433374 117.55977539 169.37353516 118.13085938 C174.87744296 120.75488592 174.87744296 120.75488592 176 123 C176.10880873 125.62347958 176.1573237 128.22080025 176.16113281 130.8449707 C176.16609772 131.65699448 176.17106262 132.46901825 176.17617798 133.3056488 C176.19085743 136.01236822 176.19762246 138.71902841 176.203125 141.42578125 C176.20595238 142.35861624 176.20877975 143.29145123 176.21169281 144.25255394 C176.22673333 149.22021138 176.23592314 154.1878396 176.24023438 159.15551758 C176.24456823 163.21192678 176.258251 167.26811717 176.28125 171.32446289 C176.4451546 200.800257 176.55705534 230.27092398 169 259 C168.74162354 259.98419922 168.74162354 259.98419922 168.47802734 260.98828125 C164.2234203 276.6710064 157.55355736 291.71809155 150.75 306.4375 C150.44537842 307.10450928 150.14075684 307.77151855 149.8269043 308.45874023 C147.95697804 312.40994939 145.76545049 315.83111193 143.16088867 319.3371582 C141.48175411 321.74232866 140.30771072 324.37778525 139 327 C137.39417095 329.47689271 135.67418302 331.86364079 133.9375 334.25 C133.26750977 335.18585938 133.26750977 335.18585938 132.58398438 336.140625 C130.82989935 338.57379526 129.12447323 340.87552677 127 343 C117.87204076 342.17197778 108.014431 331.07075122 102.31103516 324.62597656 C96.39111122 317.28394799 92.00382002 308.48809844 88 300 C87.3361697 298.66525225 86.67014567 297.33158815 86 296 C85.87882813 296.61488281 85.75765625 297.22976563 85.6328125 297.86328125 C85.38144531 299.07564453 85.38144531 299.07564453 85.125 300.3125 C84.96257812 301.11300781 84.80015625 301.91351562 84.6328125 302.73828125 C84 305 84 305 82 308 C81.34 308 80.68 308 80 308 C74.33008328 291.93174893 74.33008328 291.93174893 74 285 C73.94972656 283.97777344 73.89945313 282.95554687 73.84765625 281.90234375 C73.50066517 269.36902592 76.574711 257.91881587 80.11010742 246.00683594 C83.82253335 233.21810193 85.49731045 221.14258528 85.39111328 207.88427734 C85.37501147 205.50169672 85.39107252 203.12081144 85.41015625 200.73828125 C85.42920286 187.79811275 83.87383094 175.48342374 79 163.375 C78.7525 162.72144531 78.505 162.06789063 78.25 161.39453125 C76.81161626 157.68619817 75.05724254 154.3920011 73 151 C73 150.34 73 149.68 73 149 C72.35675781 149.31453125 71.71351563 149.6290625 71.05078125 149.953125 C57.92115153 156.17143751 45.77995115 159.17857498 31.3125 159.1875 C30.28705078 159.19974609 29.26160156 159.21199219 28.20507812 159.22460938 C20.44296611 159.23931963 12.60701345 158.8687354 5.33666992 155.91967773 C2.499868 154.80315565 1.06385602 155.05519059 -1.875 155.75 C-2.67679687 155.93046875 -3.47859375 156.1109375 -4.3046875 156.296875 C-6.29930051 156.81720883 -8.27735119 157.4019724 -10.24365234 158.02075195 C-16.35130911 159.61296639 -22.47230979 159.44122248 -28.75 159.4375 C-29.44118927 159.43790283 -30.13237854 159.43830566 -30.84451294 159.4387207 C-59.14346625 159.34371242 -80.57931767 148.22154036 -101 129 C-101.59167969 128.47277344 -102.18335938 127.94554687 -102.79296875 127.40234375 C-107.0491209 123.44948035 -110.43745192 118.90889129 -113.875 114.25 C-114.36411865 113.58726074 -114.8532373 112.92452148 -115.35717773 112.24169922 C-117.37739435 109.4505027 -118.8997585 107.30072451 -120 104 C-118.515 103.505 -118.515 103.505 -117 103 C-116.34 103.33 -115.68 103.66 -115 104 C-114.67 102.35 -114.34 100.7 -114 99 C-115.98 98.67 -117.96 98.34 -120 98 C-119.4740625 96.9171875 -119.4740625 96.9171875 -118.9375 95.8125 C-116.72379912 89.17139735 -121.38978118 82.52271725 -124.20507812 76.59375 C-127.55051491 69.33421266 -127.55051491 69.33421266 -127 65 C-114.24438369 62.19876661 -100.90902265 62.0875522 -88 64 C-85.78634987 68.8400147 -84.30610412 73.40932783 -83.125 78.625 C-81.61692732 85.01976518 -79.63390337 91.03788026 -77.1484375 97.1328125 C-75.97759607 100.05593362 -74.96885031 103.00456372 -74 106 C-73.34 106 -72.68 106 -72 106 C-71.505 104.02 -71.505 104.02 -71 102 C-70.67 102.33 -70.34 102.66 -70 103 C-69.57483638 96.51625474 -70.50514697 92.12221234 -72.85546875 86.109375 C-80.40179466 65.60809368 -81.58396473 43.61567901 -81 22 C-64.24486827 23.56343949 -50.3475317 30.69548552 -36 39 C-36.50700713 45.33758914 -38.09344488 51.0749372 -39.96484375 57.14453125 C-45.82379699 78.96636843 -44.75002534 101.54055094 -35.1484375 122.05859375 C-34.14650837 124.15263201 -34.14650837 124.15263201 -32 125 C-32 124.34 -32 123.68 -32 123 C-30 124 -30 124 -29 126 C-28.36256753 118.60578335 -30.1545192 113.30213318 -32.75390625 106.40234375 C-40.80580425 84.41738088 -34.8724843 59.51118803 -25.43188477 38.95166016 C-18.85612959 25.04344045 -10.99282323 10.99282323 0 0 Z " fill="#FAF4F4" transform="translate(505,285)"/>
<path d="M0 0 C6.59359564 0.25857238 11.41089196 2.39971207 17.3125 5.26171875 C21.28172559 7.17190856 25.35003071 8.80002638 29.4375 10.4375 C51.10863127 19.21726254 51.10863127 19.21726254 53 23 C53.10880873 25.62347958 53.1573237 28.22080025 53.16113281 30.8449707 C53.16858017 32.06300636 53.16858017 32.06300636 53.17617798 33.3056488 C53.19085743 36.01236822 53.19762246 38.71902841 53.203125 41.42578125 C53.20736607 42.82503373 53.20736607 42.82503373 53.21169281 44.25255394 C53.22673333 49.22021138 53.23592314 54.1878396 53.24023438 59.15551758 C53.24456823 63.21192678 53.258251 67.26811717 53.28125 71.32446289 C53.4451546 100.800257 53.55705534 130.27092398 46 159 C45.82774902 159.65613281 45.65549805 160.31226563 45.47802734 160.98828125 C41.2234203 176.6710064 34.55355736 191.71809155 27.75 206.4375 C27.29306763 207.43801392 27.29306763 207.43801392 26.8269043 208.45874023 C24.95697804 212.40994939 22.76545049 215.83111193 20.16088867 219.3371582 C18.48175411 221.74232866 17.30771072 224.37778525 16 227 C14.39417095 229.47689271 12.67418302 231.86364079 10.9375 234.25 C10.49083984 234.87390625 10.04417969 235.4978125 9.58398438 236.140625 C7.82989935 238.57379526 6.12447323 240.87552677 4 243 C-5.12795924 242.17197778 -14.985569 231.07075122 -20.68896484 224.62597656 C-24.79740313 219.530595 -27.87590411 213.72642211 -31 208 C-31.44214844 207.26007813 -31.88429688 206.52015625 -32.33984375 205.7578125 C-42.43077388 188.01300706 -37.86211544 167.45893155 -33 149 C-32.49133394 147.16357671 -31.98090537 145.32764073 -31.46875 143.4921875 C-22.67380946 111.38682572 -23.15469152 77.53032416 -39.23046875 47.76831055 C-40 46 -40 46 -40 43 C-38.515 42.505 -38.515 42.505 -37 42 C-35.97715198 41.0233824 -34.98086642 40.0187743 -34 39 C-32.38708914 37.69326883 -30.76087197 36.40286959 -29.125 35.125 C-25.51362064 32.24840345 -22.14718377 29.38927483 -19 26 C-18.26523437 25.21238281 -17.53046875 24.42476563 -16.7734375 23.61328125 C-11.6948818 18.28740479 -11.6948818 18.28740479 -8 12 C-7.34 12 -6.68 12 -6 12 C-5.7525 11.319375 -5.505 10.63875 -5.25 9.9375 C-3.75802092 6.43134917 -1.93164489 3.28379632 0 0 Z " fill="#EDC3C7" transform="translate(628,385)"/>
<path d="M0 0 C14.94589006 6.0254827 24.04018843 31.21208093 30.47265625 45.203125 C38.17008388 63.56396156 41.62901726 85.86058173 35 105 C34.57460938 106.2375 34.14921875 107.475 33.7109375 108.75 C30.90929836 116.47081856 27.4802068 122.81912749 22 129 C21.4121875 129.79664063 20.824375 130.59328125 20.21875 131.4140625 C17.49931302 134.58354714 14.51674839 136.84481112 11.125 139.25 C10.52558594 139.69601562 9.92617188 140.14203125 9.30859375 140.6015625 C5.64621356 143.22322294 2.65693444 145.12303658 -2 145 C-4.44650164 143.58313034 -6.31262586 142.29656198 -8.4375 140.5 C-9.00879639 140.03440674 -9.58009277 139.56881348 -10.16870117 139.08911133 C-11.79746601 137.74615169 -13.40110027 136.37827062 -15 135 C-15.69867188 134.41605469 -16.39734375 133.83210937 -17.1171875 133.23046875 C-28.25460409 123.09387991 -34.12378845 107.68422713 -36 93 C-37.65134611 57.66887396 -22.86634609 27.8600445 -1 1 C-0.67 0.67 -0.34 0.34 0 0 Z " fill="#CF7F8D" transform="translate(505,285)"/>
<path d="M0 0 C16.75513173 1.56343949 30.6524683 8.69548552 45 17 C44.49299287 23.33758914 42.90655512 29.0749372 41.03515625 35.14453125 C35.0137379 57.57147432 36.0657458 81.05619443 46.9921875 101.7265625 C49.66368499 106.08203896 52.7298066 109.94454562 56.08203125 113.79296875 C58 116 58 116 60 119 C44.86819449 117.05606002 32.11170718 104.48040525 23 93 C9.37279623 73.97228222 4.27152582 53.76710579 1 31 C0.89179932 30.31405762 0.78359863 29.62811523 0.67211914 28.92138672 C-0.20165797 22.95941413 -0.11142873 17.01447032 -0.0625 11 C-0.05573242 9.40865234 -0.05573242 9.40865234 -0.04882812 7.78515625 C-0.03713843 5.19004402 -0.02075276 2.59505291 0 0 Z " fill="#CE7F8E" transform="translate(424,307)"/>
<path d="M0 0 C1.15000805 36.3402545 -4.8019837 72.50378094 -29.33984375 100.6875 C-37.18243526 109.02581448 -47.84442864 116.75799185 -59 120 C-59.66 119.67 -60.32 119.34 -61 119 C-60.43152344 118.47792969 -59.86304688 117.95585937 -59.27734375 117.41796875 C-45.34086626 104.13294597 -37.51389064 86.85111444 -36.71484375 67.59375 C-36.35588284 52.21890083 -37.71070012 37.84823772 -43.328125 23.41796875 C-44.08568129 20.69164698 -43.97464383 19.61879497 -43 17 C-40.51990001 15.17604297 -38.15944167 13.64172648 -35.5 12.125 C-34.7476709 11.68808838 -33.9953418 11.25117676 -33.22021484 10.80102539 C-25.49433316 6.46513682 -17.43532604 3.61553016 -9 1 C-5.8035914 -0.06546953 -3.34252724 -0.07427838 0 0 Z " fill="#CE7E8C" transform="translate(587,307)"/>
<path d="M0 0 C1.2375 -0.01224609 2.475 -0.02449219 3.75 -0.03710938 C10.58228587 -0.04801196 16.65381573 0.38140193 23.25 2.1875 C19.98235605 20.9511874 6.97388969 38.72060018 -4.75 53.1875 C-5.51054688 54.13367188 -6.27109375 55.07984375 -7.0546875 56.0546875 C-22.47752882 74.18923719 -45.15565046 85.65860287 -68.75 88.1875 C-71.73115789 88.29163634 -74.70504275 88.2832236 -77.6875 88.25 C-78.46673828 88.24548828 -79.24597656 88.24097656 -80.04882812 88.23632812 C-81.94925268 88.22466908 -83.84963706 88.20673877 -85.75 88.1875 C-83.31501539 85.75251539 -81.38545882 85.28780372 -78.125 84.1875 C-59.68702271 77.1867669 -44.18535491 64.63917228 -34.75 47.1875 C-34.23050781 46.23230469 -33.71101562 45.27710938 -33.17578125 44.29296875 C-26.90501183 32.24108697 -23.10848485 20.36066376 -20.546875 7.08203125 C-19.75 3.1875 -19.75 3.1875 -18.75 1.1875 C-12.69962967 -0.52668079 -6.22970394 0.00320458 0 0 Z " fill="#CE808D" transform="translate(611.75,347.8125)"/>
<path d="M0 0 C2.21365013 4.8400147 3.69389588 9.40932783 4.875 14.625 C9.13002301 32.36451067 16.6704418 48.46809126 29 62 C29.62390625 62.70511719 30.2478125 63.41023438 30.890625 64.13671875 C40.63612195 74.55784889 53.37261526 81.94861535 67 86 C67 86.33 67 86.66 67 87 C41.68834444 88.07709173 18.27116099 81.6145178 -1.125 64.6875 C-2.76744257 63.14334533 -4.39288898 61.58089387 -6 60 C-6.73863281 59.27425781 -7.47726562 58.54851562 -8.23828125 57.80078125 C-19.87394673 45.6277671 -38.52070522 20.75394381 -39.08984375 3.234375 C-39.06019531 2.49703125 -39.03054688 1.7596875 -39 1 C-26.24438369 -1.80123339 -12.90902265 -1.9124478 0 0 Z " fill="#CE7F8D" transform="translate(417,349)"/>
<path d="M0 0 C13.2 0 26.4 0 40 0 C40 14.19 40 28.38 40 43 C26.8 43 13.6 43 0 43 C0 28.81 0 14.62 0 0 Z " fill="#F3F3F3" transform="translate(0,936)"/>
<path d="M0 0 C1.60192353 3.01080715 2.73006619 6.00797284 3.76953125 9.25390625 C4.10146484 10.27419922 4.43339844 11.29449219 4.77539062 12.34570312 C5.45770832 14.46204444 6.13746792 16.5792125 6.81445312 18.69726562 C8.83512134 24.8911373 11.13411291 30.66362208 14.15112305 36.44506836 C15 39 15 39 14 45 C9.05 45 4.1 45 -1 45 C-1.02486464 39.87711941 -1.04293752 34.75427458 -1.05493164 29.63134766 C-1.05993604 27.89143257 -1.06674159 26.15152164 -1.07543945 24.41162109 C-1.08767662 21.89940358 -1.09326739 19.38724206 -1.09765625 16.875 C-1.10281754 16.10696045 -1.10797882 15.3389209 -1.11329651 14.54760742 C-1.11380013 9.61241308 -0.70049068 4.88646786 0 0 Z " fill="#F5F2F2" transform="translate(337,545)"/>
<path d="M0 0 C3.52251695 0.96869216 6.46338671 2.19799474 9.5 4.1875 C14.79592196 7.62078781 20.46350164 10.30432145 26.12255859 13.07519531 C28.01062992 14.00523617 29.89104718 14.94919574 31.76953125 15.8984375 C32.69161377 16.3637085 32.69161377 16.3637085 33.63232422 16.83837891 C35.33705113 17.69927291 37.0415787 18.56056161 38.74609375 19.421875 C42.12710344 21.0616444 45.54052483 22.53461461 49 24 C49.825 24.4125 50.65 24.825 51.5 25.25 C57.34556019 27.00366806 62.69855278 24.47882357 67.9375 21.9375 C68.57574707 21.63094482 69.21399414 21.32438965 69.87158203 21.00854492 C75.41324545 18.33207382 80.90967053 15.56080062 86.40405273 12.78881836 C91.20764746 10.37119022 96.0559094 8.11889597 101 6 C101.495 6.99 101.495 6.99 102 8 C98.39490481 9.88795895 94.78761926 11.77166387 91.1784668 13.65185547 C89.95719076 14.28877897 88.73646489 14.92675878 87.51635742 15.56591797 C79.12442092 19.96087028 70.69793544 24.23320126 62 28 C61.31711914 28.30808594 60.63423828 28.61617187 59.93066406 28.93359375 C56.51120633 30.2336494 54.24970797 29.97610921 50.94140625 28.7265625 C49.47111154 28.04869935 48.01174395 27.34677349 46.5625 26.625 C45.3861499 26.06897095 45.3861499 26.06897095 44.18603516 25.50170898 C41.77951619 24.3561284 39.38951844 23.18055666 37 22 C35.61110906 21.33113351 34.22180718 20.66311946 32.83203125 19.99609375 C23.33830818 15.38747904 14.13414771 10.2805164 5 5 C4.02417969 4.45988281 3.04835938 3.91976562 2.04296875 3.36328125 C1.36878906 2.91339844 0.69460938 2.46351563 0 2 C0 1.34 0 0.68 0 0 Z " fill="#DFCACD" transform="translate(449,690)"/>
<path d="M0 0 C0.91204104 3.07813852 1.24682644 5.79125624 1 9 C0.01 10.485 0.01 10.485 -1 12 C-0.68493373 15.14221967 -0.68493373 15.14221967 0 18 C1.32 18 2.64 18 4 18 C4 17.34 4 16.68 4 16 C4.99 16.33 5.98 16.66 7 17 C2.6928691 21.10202943 -1.85541676 24.27751352 -7 27.25 C-7.58088379 27.59095703 -8.16176758 27.93191406 -8.76025391 28.28320312 C-12.78298932 30.55481235 -16.55647865 31.88911966 -21 33 C-20.175 32.05125 -19.35 31.1025 -18.5 30.125 C-17.9534375 29.48046875 -17.406875 28.8359375 -16.84375 28.171875 C-15.58679792 26.69122805 -14.31525767 25.2228718 -13.03125 23.765625 C-6.97615423 16.63924306 -2.95634579 8.86903737 0 0 Z " fill="#C98792" transform="translate(547,394)"/>
<path d="M0 0 C2.06987401 3.10481102 4.0415388 6.26209642 6 9.4375 C6.35578125 10.01048828 6.7115625 10.58347656 7.078125 11.17382812 C8.85714883 14.05810371 10.55352945 16.93378378 12 20 C11.01 20.33 10.02 20.66 9 21 C8.67 23.31 8.34 25.62 8 28 C4.45157672 24.88168864 1.78365249 21.4732233 -0.875 17.5625 C-1.49117188 16.65628906 -2.10734375 15.75007813 -2.7421875 14.81640625 C-4.26650302 11.40326497 -3.93341977 9.56062935 -3 6 C-2.34 6.33 -1.68 6.66 -1 7 C-0.67 4.69 -0.34 2.38 0 0 Z " fill="#F8EEEF" transform="translate(436,381)"/>
<path d="M0 0 C0.66 0.33 1.32 0.66 2 1 C1.53802187 5.15780314 1.14081415 7.23608355 -2 10 C-2.433125 10.928125 -2.433125 10.928125 -2.875 11.875 C-4.47033414 14.88840893 -6.39296577 16.81736669 -9 19 C-10.66614608 19.04165365 -12.33385392 19.04165365 -14 19 C-16.7905817 20.89816542 -16.7905817 20.89816542 -19 23 C-19.33 22.34 -19.66 21.68 -20 21 C-19.0625 18.875 -19.0625 18.875 -18 17 C-17.34 17 -16.68 17 -16 17 C-15.7421875 16.41734375 -15.484375 15.8346875 -15.21875 15.234375 C-13.90165983 12.8197097 -12.44911616 11.18259823 -10.5 9.25 C-9.8915625 8.63640625 -9.283125 8.0228125 -8.65625 7.390625 C-7 6 -7 6 -5 6 C-4.9175 5.38125 -4.835 4.7625 -4.75 4.125 C-4 2 -4 2 -2.0625 0.6875 C-1.381875 0.460625 -0.70125 0.23375 0 0 Z " fill="#FBFAF9" transform="translate(569,398)"/>
<path d="M0 0 C0.33 0.99 0.66 1.98 1 3 C2.98 3 4.96 3 7 3 C7 5.97 7 8.94 7 12 C5.68 12 4.36 12 3 12 C2.34 13.98 1.68 15.96 1 18 C0.67 18 0.34 18 0 18 C0 16.02 0 14.04 0 12 C-4.82442184 13.26946514 -4.82442184 13.26946514 -8 17 C-8.66 16.67 -9.32 16.34 -10 16 C-9.52949219 15.26394531 -9.05898438 14.52789062 -8.57421875 13.76953125 C-7.95160156 12.79371094 -7.32898438 11.81789063 -6.6875 10.8125 C-6.07261719 9.84957031 -5.45773437 8.88664062 -4.82421875 7.89453125 C-3.17876897 5.28365697 -1.57630335 2.6530398 0 0 Z " fill="#F4ECED" transform="translate(625,373)"/>
<path d="M0 0 C3.31002696 1.43753955 5.43889464 3.22483544 7.9375 5.8125 C8.58589844 6.47894531 9.23429687 7.14539063 9.90234375 7.83203125 C10.59457031 8.54746094 11.28679687 9.26289062 12 10 C13.65 11.65 15.3 13.3 17 15 C11.06 14.67 5.12 14.34 -1 14 C-1.33 13.01 -1.66 12.02 -2 11 C-1.34 11 -0.68 11 0 11 C1.12733524 7.05432668 1.32234763 3.96704289 0 0 Z " fill="#F3EEEF" transform="translate(465,533)"/>
<path d="M0 0 C6.86036401 0.65965039 13.34443923 2.2362764 20 4 C20.33 3.01 20.66 2.02 21 1 C28.44740941 1 34.21910145 3.0666133 41 6 C41 6.33 41 6.66 41 7 C26.90727489 7.59969043 13.12055406 6.72252063 0 1 C0 0.67 0 0.34 0 0 Z " fill="#C78B96" transform="translate(443,429)"/>
<path d="M0 0 C0.33 0 0.66 0 1 0 C1.05837668 3.70826651 1.09372277 7.4164137 1.125 11.125 C1.14175781 12.17171875 1.15851562 13.2184375 1.17578125 14.296875 C1.25239019 26.40108824 1.25239019 26.40108824 -2.625 30.875 C-3.07875 31.24625 -3.5325 31.6175 -4 32 C-4.99 31.67 -5.98 31.34 -7 31 C-6.38420288 26.06092621 -5.39816168 21.43338204 -4.0625 16.625 C-2.550056 11.11059636 -1.17806919 5.59582865 0 0 Z " fill="#F4EEEF" transform="translate(589,515)"/>
<path d="M0 0 C1.953125 0.8359375 1.953125 0.8359375 4 2 C4.75 4.625 4.75 4.625 5 7 C5.66 7 6.32 7 7 7 C8.5625 8 8.5625 8 10 10 C10.32098858 11.99012918 10.63490181 13.98452619 10.81640625 15.9921875 C11.03393922 18.37116513 11.48986882 20.66797175 12 23 C12.66 23 13.32 23 14 23 C14.33910994 25.04071515 14.67102704 27.08262621 15 29.125 C15.2784375 30.83042969 15.2784375 30.83042969 15.5625 32.5703125 C15.96928942 35.75925099 16 38.79248782 16 42 C16.495 42.495 16.495 42.495 17 43 C17.14115161 45.67058851 17.04247107 48.32432238 17 51 C16.34 50.67 15.68 50.34 15 50 C14.48510742 48.01318359 14.48510742 48.01318359 14.10546875 45.3984375 C13.9573877 44.44042236 13.80930664 43.48240723 13.65673828 42.49536133 C13.50188965 41.46564209 13.34704102 40.43592285 13.1875 39.375 C10.87072207 25.14884375 6.90441417 12.74113543 0 0 Z " fill="#C38792" transform="translate(502,571)"/>
<path d="M0 0 C0.66 0.33 1.32 0.66 2 1 C-0.20760339 4.31140509 -1.61272941 4.70431808 -5.18359375 6.11328125 C-8.66088964 7.81079989 -11.28090226 10.56180451 -13 14 C-12.67 14.66 -12.34 15.32 -12 16 C-11.71795865 18.13952582 -11.49707066 20.28737169 -11.3125 22.4375 C-11.20550781 23.59121094 -11.09851563 24.74492187 -10.98828125 25.93359375 C-11 29 -11 29 -13 32 C-13.64730804 29.43786446 -14.29289288 26.87531515 -14.9375 24.3125 C-15.11990234 23.59126953 -15.30230469 22.87003906 -15.49023438 22.12695312 C-16.41825907 18.43172752 -17.29798461 14.74654531 -18 11 C-5.25855188 2.23460661 -5.25855188 2.23460661 0 0 Z " fill="#C78A97" transform="translate(561,314)"/>
<path d="M0 0 C0.02920143 4.18748519 0.04686646 8.37494391 0.0625 12.5625 C0.07087891 13.74392578 0.07925781 14.92535156 0.08789062 16.14257812 C0.10392999 21.86863072 0.0510705 27.36394482 -1 33 C-1.33 33 -1.66 33 -2 33 C-2.20638953 10.19872014 -2.20638953 10.19872014 -1 1 C-1.66 1 -2.32 1 -3 1 C-3 1.66 -3 2.32 -3 3 C-8.41549921 5.39531696 -12.7512541 7.15071685 -18.75 7.0625 C-19.54921875 7.05347656 -20.3484375 7.04445313 -21.171875 7.03515625 C-21.77515625 7.02355469 -22.3784375 7.01195312 -23 7 C-20.3217062 4.3217062 -17.26610052 3.53578558 -13.75 2.375 C-13.09386719 2.14554687 -12.43773437 1.91609375 -11.76171875 1.6796875 C-7.67800538 0.31574347 -4.2755553 -0.09899218 0 0 Z " fill="#C58C96" transform="translate(587,307)"/>
<path d="M0 0 C0.66 0 1.32 0 2 0 C1.835 1.051875 1.67 2.10375 1.5 3.1875 C0.46143326 11.52570727 0.79890891 19.71065166 2 28 C2.6854737 37.14617772 2.90730134 44.60789049 -3 52 C-4.5931843 53.82139719 -6.18313151 55.39077362 -8 57 C-8.495 55.515 -8.495 55.515 -9 54 C-8.01 54 -7.02 54 -6 54 C-4.50823136 50.37713331 -3.19127925 46.73267499 -2 43 C-1.81695312 42.43200684 -1.63390625 41.86401367 -1.4453125 41.27880859 C-0.81533837 38.05502652 -0.89774018 34.87098752 -0.9375 31.6015625 C-0.94128662 30.88898285 -0.94507324 30.1764032 -0.94897461 29.44223022 C-0.96525619 26.40542469 -0.99334801 23.36875587 -1.02050781 20.33203125 C-1.03867922 18.10938143 -1.05072033 15.88675396 -1.0625 13.6640625 C-1.07079834 12.98574371 -1.07909668 12.30742493 -1.08764648 11.60855103 C-1.10795524 7.62871679 -0.76830793 3.90430497 0 0 Z " fill="#C48F96" transform="translate(407,458)"/>
<path d="M0 0 C2.02910711 0.25327449 4.04962145 0.57730068 6.0625 0.9375 C7.16722656 1.13214844 8.27195312 1.32679688 9.41015625 1.52734375 C10.69212891 1.76130859 10.69212891 1.76130859 12 2 C9.61426621 3.89213369 7.92824652 5.02391783 5 6 C5.33 7.32 5.66 8.64 6 10 C0.43109483 9.52013969 -4.67067568 8.70084819 -10 7 C-7.35261084 5.5393715 -6.10551666 5 -3 5 C-2.690625 4.360625 -2.38125 3.72125 -2.0625 3.0625 C-1 1 -1 1 0 0 Z " fill="#F6EAEB" transform="translate(454,433)"/>
<path d="M0 0 C0.66 0 1.32 0 2 0 C1.80664062 0.75023437 1.61328125 1.50046875 1.4140625 2.2734375 C0.59035597 5.51117505 -0.20791664 8.75439015 -1 12 C-1.21269531 12.8353125 -1.42539062 13.670625 -1.64453125 14.53125 C-4.09276296 25.09915668 -3.48450012 35.52026643 -1 46 C-0.51928089 48.3683134 -0.20145301 50.58256386 0 53 C-0.66 53.66 -1.32 54.32 -2 55 C-5.71549746 40.72220788 -6.44948555 28.57048826 -4 14 C-3.83113281 12.91460938 -3.66226563 11.82921875 -3.48828125 10.7109375 C-2.28790535 3.43185802 -2.28790535 3.43185802 0 0 Z " fill="#C28993" transform="translate(583,534)"/>
<path d="M0 0 C0.33 0 0.66 0 1 0 C0.8831456 1.50065654 0.75597952 3.0005103 0.625 4.5 C0.55539062 5.3353125 0.48578125 6.170625 0.4140625 7.03125 C0 10 0 10 -1.01367188 13.69921875 C-2.0456946 17.7738821 -2.22930319 21.56640424 -2.1953125 25.78125 C-2.1924826 26.48020386 -2.18965271 27.17915771 -2.18673706 27.89929199 C-2.1756727 30.09971316 -2.15059606 32.29970493 -2.125 34.5 C-2.11495235 36.00520239 -2.10582965 37.51041126 -2.09765625 39.015625 C-2.07577893 42.67721938 -2.04134696 46.33856768 -2 50 C-8.70122843 37.27464111 -5.28106053 17.30564027 -1.375 4.125 C-0.92731836 2.74649516 -0.4734561 1.36986633 0 0 Z " fill="#C48A96" transform="translate(474,338)"/>
<path d="M0 0 C1.65 0 3.3 0 5 0 C3.68 0.33 2.36 0.66 1 1 C1.64281258 18.52260694 1.64281258 18.52260694 3 36 C1 34 1 34 0.5 30.4375 C0.335 29.303125 0.17 28.16875 0 27 C-0.66 26.67 -1.32 26.34 -2 26 C-2.44921875 23.453125 -2.44921875 23.453125 -2.6875 20.25 C-2.77386719 19.20328125 -2.86023438 18.1565625 -2.94921875 17.078125 C-2.99678165 14.19508148 -2.68699305 11.78929511 -2 9 C-1.67 9 -1.34 9 -1 9 C-0.67 6.03 -0.34 3.06 0 0 Z " fill="#F6E7E8" transform="translate(423,306)"/>
<path d="M0 0 C0.33 0 0.66 0 1 0 C1.19916043 4.29120727 1.38218102 8.58296299 1.5625 12.875 C1.61857422 14.07898438 1.67464844 15.28296875 1.73242188 16.5234375 C2.47677257 34.78484115 2.47677257 34.78484115 -1 40 C-1.33571562 43.09793272 -1.44160947 46.1718648 -1.55859375 49.28515625 C-1.70425781 50.18105469 -1.84992187 51.07695312 -2 52 C-2.99 52.66 -3.98 53.32 -5 54 C-4.54966365 49.59623015 -4.08274342 45.23333565 -3.28125 40.87890625 C-0.7977093 27.29728883 -0.29213529 13.78523505 0 0 Z " fill="#F4DBE0" transform="translate(587,307)"/>
<path d="M0 0 C5.09241643 5.09241643 8.28500906 11.85009056 9 19 C8.34 19.33 7.68 19.66 7 20 C7 18.02 7 16.04 7 14 C6.34 14 5.68 14 5 14 C4.67 12.02 4.34 10.04 4 8 C3.01 7.67 2.02 7.34 1 7 C-1.64296752 4.66796984 -2.87224426 3.38326722 -4 0 C-6.9615696 -1.4807848 -9.83506295 -1.35314037 -13.125 -1.5625 C-14.40632813 -1.64628906 -15.68765625 -1.73007812 -17.0078125 -1.81640625 C-18.48894531 -1.90728516 -18.48894531 -1.90728516 -20 -2 C-20 -2.33 -20 -2.66 -20 -3 C-12.32630255 -4.86029029 -6.56732595 -4.38300747 0 0 Z " fill="#C58D96" transform="translate(462,600)"/>
<path d="M0 0 C0.66 0.33 1.32 0.66 2 1 C2.625 3.0625 2.625 3.0625 3 5 C1.88625 5.226875 0.7725 5.45375 -0.375 5.6875 C-4.14380897 6.59129963 -4.14380897 6.59129963 -5.3125 9.5 C-5.539375 10.325 -5.76625 11.15 -6 12 C-6.66 12.66 -7.32 13.32 -8 14 C-8.66 14 -9.32 14 -10 14 C-10.36980013 18.04622502 -10.36980013 18.04622502 -8 21 C-8 21.66 -8 22.32 -8 23 C-10.46800047 21.84826645 -12.04783565 20.95216435 -14 19 C-14 13.72116932 -10.45405704 10.79160226 -7 7.25 C-6.44054687 6.66089844 -5.88109375 6.07179688 -5.3046875 5.46484375 C-3.55428037 3.62564786 -1.79544629 1.79544629 0 0 Z " fill="#F8E7E9" transform="translate(400,514)"/>
<path d="M0 0 C0.33 0 0.66 0 1 0 C1.99550706 4.95342266 2.13097403 9.65510691 2.09765625 14.6796875 C2.0962413 15.49245148 2.09482635 16.30521545 2.09336853 17.14260864 C2.08780335 19.72011101 2.0752574 22.2975242 2.0625 24.875 C2.0574805 26.63020707 2.05291838 28.38541552 2.04882812 30.140625 C2.03784534 34.42711732 2.02060492 38.71354357 2 43 C1.67 43 1.34 43 1 43 C-0.4329521 34.35111056 -1.66160759 25.78553329 -1 17 C-0.67 16.67 -0.34 16.34 0 16 C0.07319621 13.30345146 0.09242537 10.63308542 0.0625 7.9375 C0.05798828 7.17888672 0.05347656 6.42027344 0.04882812 5.63867188 C0.0370068 3.75908129 0.01907078 1.87953101 0 0 Z " fill="#C48892" transform="translate(589,466)"/>
<path d="M0 0 C8.47443032 2.33777388 15.5147726 6.5173816 23 11 C22.43008089 15.97010539 21.76997725 20.28006065 20 25 C19.67 25 19.34 25 19 25 C18.67 22.69 18.34 20.38 18 18 C18.66 17.67 19.32 17.34 20 17 C20.65555119 14.47266765 20.65555119 14.47266765 21 12 C19.68 12 18.36 12 17 12 C15.97895449 11.02149805 14.9793879 10.02019573 14 9 C11.89667109 8.28552357 11.89667109 8.28552357 10 8 C10 7.01 10 6.02 10 5 C9.46375 4.896875 8.9275 4.79375 8.375 4.6875 C5.37497956 3.81907303 2.7620465 2.44379704 0 1 C0 0.67 0 0.34 0 0 Z " fill="#C28994" transform="translate(446,313)"/>
<path d="M0 0 C0.33 0 0.66 0 1 0 C1.25394531 1.12277344 1.50789063 2.24554688 1.76953125 3.40234375 C3.52510668 11.0688698 5.30782083 18.59650728 8 26 C7.01 26.33 6.02 26.66 5 27 C4.51171875 25.01432292 4.0234375 23.02864583 3.53515625 21.04296875 C3.08989295 19.34316798 2.55566015 17.66698046 2 16 C1.34 16.66 0.68 17.32 0 18 C-0.19484938 15.56288386 -0.38115178 13.12562602 -0.5625 10.6875 C-0.64661133 9.65206055 -0.64661133 9.65206055 -0.73242188 8.59570312 C-0.96581505 5.37487726 -1.03224218 3.09672655 0 0 Z " fill="#F5E8E8" transform="translate(421,458)"/>
<path d="M0 0 C0.42925781 0.64453125 0.85851562 1.2890625 1.30078125 1.953125 C2.91700453 4.31836775 2.91700453 4.31836775 6.1875 4.75 C7.115625 4.8325 8.04375 4.915 9 5 C9 5.33 9 5.66 9 6 C3.63510405 6.90483637 -1.50317457 7.12303662 -6.9375 7.0625 C-7.71673828 7.05798828 -8.49597656 7.05347656 -9.29882812 7.04882812 C-11.19925268 7.03716908 -13.09963706 7.01923877 -15 7 C-12.39473112 4.39473112 -9.82060766 3.65865776 -6.375 2.375 C-4.59222656 1.70597656 -4.59222656 1.70597656 -2.7734375 1.0234375 C-1.40058594 0.51683594 -1.40058594 0.51683594 0 0 Z " fill="#C5959C" transform="translate(541,429)"/>
<path d="M0 0 C6.23118279 6.23118279 11 22.12642061 11 31 C10.34 31 9.68 31 9 31 C9 29.35 9 27.7 9 26 C8.34 26 7.68 26 7 26 C6.89042969 25.24074219 6.78085937 24.48148437 6.66796875 23.69921875 C6.50941406 22.70535156 6.35085938 21.71148437 6.1875 20.6875 C5.96126953 19.20830078 5.96126953 19.20830078 5.73046875 17.69921875 C4.9500515 14.81543095 4.21595425 13.89856497 2 12 C-0.13431596 7.95603293 -0.17742222 4.5242666 0 0 Z " fill="#CB939E" transform="translate(530,320)"/>
<path d="M0 0 C0.66 1.32 1.32 2.64 2 4 C1.071875 5.3303125 1.071875 5.3303125 0.125 6.6875 C-2.02899881 9.81593129 -2.02899881 9.81593129 -3.125 12.8125 C-4 15 -4 15 -6 16 C-6 17.32 -6 18.64 -6 20 C-6.66 20.33 -7.32 20.66 -8 21 C-8.65555119 23.52733235 -8.65555119 23.52733235 -9 26 C-9.99 26 -10.98 26 -12 26 C-10.08321013 19.56404235 -7.54251139 13.81539951 -4.3125 7.9375 C-3.89677734 7.16728516 -3.48105469 6.39707031 -3.05273438 5.60351562 C-2.0415352 3.732216 -1.02168617 1.86559466 0 0 Z " fill="#C2838D" transform="translate(488,308)"/>
<path d="M0 0 C0.33 0.99 0.66 1.98 1 3 C1.66 3 2.32 3 3 3 C6.25968109 16.6332574 6.25968109 16.6332574 7 23 C7.66 23 8.32 23 9 23 C9.53122363 24.76774419 10.04964073 26.53934083 10.5625 28.3125 C10.85253906 29.29863281 11.14257812 30.28476562 11.44140625 31.30078125 C12 34 12 34 11 37 C0 8.01685393 0 8.01685393 0 0 Z " fill="#C48C95" transform="translate(336,538)"/>
<path d="M0 0 C3.59634744 3.49359465 6.83451967 7.11098131 10 11 C5.40191871 10.46105575 2.13215631 9.23428472 -1.875 6.9375 C-2.84179688 6.38964844 -3.80859375 5.84179688 -4.8046875 5.27734375 C-5.52914063 4.85582031 -6.25359375 4.43429687 -7 4 C-4 3 -4 3 -1.8125 3.9375 C-1.214375 4.288125 -0.61625 4.63875 0 5 C0 3.35 0 1.7 0 0 Z " fill="#C68E97" transform="translate(474,415)"/>
<path d="M0 0 C0.66 0 1.32 0 2 0 C2.10957031 0.85722656 2.21914063 1.71445312 2.33203125 2.59765625 C3.21151143 8.93992387 4.29457276 14.22022362 7 20 C7 21.32 7 22.64 7 24 C7.66 24 8.32 24 9 24 C9.33 25.98 9.66 27.96 10 30 C9.34 30.33 8.68 30.66 8 31 C5.05584236 25.2168332 3.23321942 19.53753134 1.75 13.25 C1.57500977 12.51724854 1.40001953 11.78449707 1.21972656 11.02954102 C0.37238079 7.29533762 -0.21121814 3.83210059 0 0 Z " fill="#C38A93" transform="translate(421,453)"/>
<path d="M0 0 C1.21985596 0.00290039 1.21985596 0.00290039 2.46435547 0.00585938 C7.85553642 0.0447303 13.0981068 0.33397879 18.4375 1.125 C18.7675 2.115 19.0975 3.105 19.4375 4.125 C18.65632813 3.95871094 17.87515625 3.79242188 17.0703125 3.62109375 C11.58168484 2.87157148 6.13387241 3.12032447 0.60546875 3.25195312 C-0.25691406 3.26291016 -1.11929687 3.27386719 -2.0078125 3.28515625 C-2.78656738 3.30199463 -3.56532227 3.31883301 -4.36767578 3.33618164 C-6.83132316 3.09913437 -8.43320589 2.35390516 -10.5625 1.125 C-7.26741901 -0.5225405 -3.61857727 -0.02026809 0 0 Z " fill="#CA97A2" transform="translate(398.5625,347.875)"/>
<path d="M0 0 C0.66 0 1.32 0 2 0 C1.79503906 0.98355469 1.59007812 1.96710938 1.37890625 2.98046875 C-0.92594369 14.64423379 -1.66347222 26.1286925 -2 38 C-2.33 38 -2.66 38 -3 38 C-3.25632348 33.64698985 -3.47520683 29.29286196 -3.6875 24.9375 C-3.76033203 23.70837891 -3.83316406 22.47925781 -3.90820312 21.21289062 C-4.21210688 14.58063814 -4.2774962 9.83394324 -1 4 C-0.62691369 2.67723944 -0.26953585 1.34767923 0 0 Z " fill="#C6929A" transform="translate(463,340)"/>
<path d="M0 0 C0.58203125 1.890625 0.58203125 1.890625 1 4 C-0.3125 5.75 -0.3125 5.75 -2 7 C-2.66 7 -3.32 7 -4 7 C-3.67 7.99 -3.34 8.98 -3 10 C-3.66 10.66 -4.32 11.32 -5 12 C-5.71408334 13.98356483 -6.38617742 15.98315437 -7 18 C-8.32 17.67 -9.64 17.34 -11 17 C-9.52869627 12.6426774 -7.16919385 9.28065866 -4.375 5.6875 C-3.95476562 5.13771484 -3.53453125 4.58792969 -3.1015625 4.02148438 C-2.07279961 2.67707832 -1.0370991 1.33798587 0 0 Z " fill="#C58893" transform="translate(500,291)"/>
<path d="M0 0 C0 3.58000342 -0.42012712 5.77156411 -2 9 C-5.4375 10.5 -5.4375 10.5 -9 11 C-9.99 10.34 -10.98 9.68 -12 9 C-8.04 6.03 -4.08 3.06 0 0 Z " fill="#F9EEEE" transform="translate(592,669)"/>
<path d="M0 0 C0 3.584276 -0.72962914 4.23091007 -2.9375 6.9375 C-5.12013528 9.61548513 -6.39470624 11.57511001 -7 15 C-7.99 15 -8.98 15 -10 15 C-12.17032476 16.43990623 -12.17032476 16.43990623 -14 18 C-14.66 17.67 -15.32 17.34 -16 17 C-15.26394531 16.27554688 -14.52789063 15.55109375 -13.76953125 14.8046875 C-6.56983689 7.69064086 -6.56983689 7.69064086 0 0 Z M-17 18 C-16.34 18.66 -15.68 19.32 -15 20 C-15.99 20 -16.98 20 -18 20 C-17.67 19.34 -17.34 18.68 -17 18 Z " fill="#FAEBEB" transform="translate(622,640)"/>
<path d="M0 0 C0.66 0.33 1.32 0.66 2 1 C-1.31960761 7.30839521 -4.69925996 13.30784406 -9 19 C-9.33 17.68 -9.66 16.36 -10 15 C-9.34 15 -8.68 15 -8 15 C-7.87625 14.071875 -7.7525 13.14375 -7.625 12.1875 C-6.62560997 7.09061087 -3.26736303 3.86924569 0 0 Z " fill="#C68D97" transform="translate(464,660)"/>
<path d="M0 0 C1.36420006 4.09260018 -0.2335485 6.47012659 -1.9375 10.1875 C-2.22818359 10.84169922 -2.51886719 11.49589844 -2.81835938 12.16992188 C-3.53695343 13.78381344 -4.2673588 15.39243655 -5 17 C-5.99 17 -6.98 17 -8 17 C-8.33 15.35 -8.66 13.7 -9 12 C-8.34 12 -7.68 12 -7 12 C-7 11.34 -7 10.68 -7 10 C-6.01 10 -5.02 10 -4 10 C-3.566875 8.3603125 -3.566875 8.3603125 -3.125 6.6875 C-2 3 -2 3 0 0 Z " fill="#C98F9A" transform="translate(634,350)"/>
<path d="M0 0 C0.86625 0.4640625 0.86625 0.4640625 1.75 0.9375 C3.92531569 2.06037668 3.92531569 2.06037668 6.125 2.5 C8 3 8 3 10 5 C10.99 5.33 11.98 5.66 13 6 C13 5.34 13 4.68 13 4 C13.66 4 14.32 4 15 4 C15 4.66 15 5.32 15 6 C15.99 6.33 16.98 6.66 18 7 C15.8074664 8.38048412 14.36086606 9 11.75 9 C7.31247454 7.38635438 2.16297012 4.32594025 0 0 Z " fill="#C28790" transform="translate(493,421)"/>
<path d="M0 0 C1.65 0.33 3.3 0.66 5 1 C1.49102731 5.18423892 -2.08060535 9.19588166 -6 13 C-5.25 6.25 -5.25 6.25 -3 4 C-1.98758315 2.67607028 -0.98560611 1.34400833 0 0 Z " fill="#F9EAEB" transform="translate(502,283)"/>
<path d="M0 0 C1.32 0.66 2.64 1.32 4 2 C2.40423801 3.50893816 0.79810089 5.00691076 -0.8125 6.5 C-2.15248047 7.75296875 -2.15248047 7.75296875 -3.51953125 9.03125 C-6 11 -6 11 -9 11 C-8.67 9.68 -8.34 8.36 -8 7 C-7.01 7.33 -6.02 7.66 -5 8 C-5 6.35 -5 4.7 -5 3 C-3.35 3 -1.7 3 0 3 C0 2.01 0 1.02 0 0 Z " fill="#CB8B96" transform="translate(603,655)"/>
<path d="M0 0 C0.79921875 0.01804687 1.5984375 0.03609375 2.421875 0.0546875 C3.02515625 0.07789063 3.6284375 0.10109375 4.25 0.125 C2.25 2.125 2.25 2.125 -1.125 2.4375 C-6.23261537 2.91546034 -10.49985709 5.025702 -15.11328125 7.1640625 C-17.75 8.125 -17.75 8.125 -20.75 7.125 C-16.81155682 3.42525034 -14.05407265 2.70362611 -8.75 2.125 C-7.80060547 1.62226563 -7.80060547 1.62226563 -6.83203125 1.109375 C-4.37768765 -0.0510276 -2.69724773 -0.07933082 0 0 Z " fill="#F7E5E8" transform="translate(380.75,384.875)"/>
<path d="M0 0 C5 0 5 0 6.8125 1.5 C7.204375 1.995 7.59625 2.49 8 3 C6.02 3.66 4.04 4.32 2 5 C1.67 10.94 1.34 16.88 1 23 C0.67 23 0.34 23 0 23 C0 15.41 0 7.82 0 0 Z " fill="#C38A93" transform="translate(424,307)"/>
<path d="M0 0 C1.175625 0.309375 2.35125 0.61875 3.5625 0.9375 C-0.17864033 4.1906655 -4.75065138 6.38124911 -9.4375 7.9375 C-10.0975 7.6075 -10.7575 7.2775 -11.4375 6.9375 C-5.31196433 -0.73856189 -5.31196433 -0.73856189 0 0 Z " fill="#C8939C" transform="translate(537.4375,419.0625)"/>
<path d="M0 0 C0.66 1.32 1.32 2.64 2 4 C-1.49359465 7.59634744 -5.11098131 10.83451967 -9 14 C-7.54216321 10.92234455 -5.83759182 8.13696082 -3.9375 5.3125 C-3.41027344 4.52488281 -2.88304687 3.73726562 -2.33984375 2.92578125 C-1 1 -1 1 0 0 Z " fill="#FBEEED" transform="translate(644,611)"/>
<path d="M0 0 C2.31 0.33 4.62 0.66 7 1 C7.103125 1.928125 7.20625 2.85625 7.3125 3.8125 C8.0070192 7.03254358 8.47740939 8.02579865 11 10 C10.67 10.99 10.34 11.98 10 13 C6.54898478 8.75259665 3.26720791 4.38894929 0 0 Z " fill="#FAEAED" transform="translate(511,290)"/>
<path d="M0 0 C2.62187494 1.04874998 3.79371361 1.64931313 5.25 4.125 C5.4975 4.74375 5.745 5.3625 6 6 C3.75 7.1875 3.75 7.1875 1 8 C-1.3125 6.625 -1.3125 6.625 -3 5 C-1.125 1.125 -1.125 1.125 0 0 Z " fill="#C3848F" transform="translate(505,285)"/>
<path d="M0 0 C0.99 0.33 1.98 0.66 3 1 C1.35 2.98 -0.3 4.96 -2 7 C-5.45925163 5.7508258 -8.14693203 4.32472205 -11 2 C-8.66705225 1.95758277 -6.33297433 1.95907063 -4 2 C-3.67 2.33 -3.34 2.66 -3 3 C-2.01 2.01 -1.02 1.02 0 0 Z " fill="#C48D96" transform="translate(449,682)"/>
<path d="M0 0 C0.66 0 1.32 0 2 0 C1.25403037 7.4596963 -0.36746129 14.68951218 -2 22 C-4.21135589 14.90038373 -2.29481382 6.88444146 0 0 Z " fill="#C48C94" transform="translate(588,510)"/>
<path d="M0 0 C2.66223903 2.66223903 2.55965531 4.54838696 3.0625 8.25 C3.21847656 9.36890625 3.37445313 10.4878125 3.53515625 11.640625 C3.68855469 12.74921875 3.84195312 13.8578125 4 15 C4.22558594 16.06734375 4.45117188 17.1346875 4.68359375 18.234375 C5 21 5 21 3 24 C2.49357075 20.93852743 1.99600678 17.87567701 1.5 14.8125 C1.35691406 13.94818359 1.21382813 13.08386719 1.06640625 12.19335938 C0.40685738 8.09473423 -0.20709266 4.16773976 0 0 Z " fill="#C78F9A" transform="translate(425,333)"/>
<path d="M0 0 C0.33 0 0.66 0 1 0 C2.44987304 7.06813109 2.44987304 13.93186891 1 21 C0.67 21 0.34 21 0 21 C-0.36103536 19.18885568 -0.71365504 17.37603177 -1.0625 15.5625 C-1.25972656 14.55316406 -1.45695313 13.54382813 -1.66015625 12.50390625 C-1.82837891 11.26447266 -1.82837891 11.26447266 -2 10 C-1.67 9.67 -1.34 9.34 -1 9 C-0.76807135 7.48530552 -0.58784762 5.96245438 -0.4375 4.4375 C-0.35371094 3.61121094 -0.26992188 2.78492188 -0.18359375 1.93359375 C-0.12300781 1.29550781 -0.06242188 0.65742188 0 0 Z " fill="#F5EAEA" transform="translate(589,445)"/>
<path d="M0 0 C0.66 1.65 1.32 3.3 2 5 C1.01 5.495 1.01 5.495 0 6 C0 5.34 0 4.68 0 4 C-0.70125 4.350625 -1.4025 4.70125 -2.125 5.0625 C-5.50268586 6.1639193 -7.58080593 5.79516141 -11 5 C-3.5 0 -3.5 0 0 0 Z " fill="#C89199" transform="translate(578,434)"/>
<path d="M0 0 C-0.56122722 3.25511789 -1.33120095 4.99840071 -4 7 C-6.5625 7.8125 -6.5625 7.8125 -9 8 C-9.66 7.34 -10.32 6.68 -11 6 C-9.54550599 4.9944239 -8.08627557 3.99569565 -6.625 3 C-5.40683594 2.1646875 -5.40683594 2.1646875 -4.1640625 1.3125 C-2 0 -2 0 0 0 Z " fill="#F9EAEB" transform="translate(570,686)"/>
<path d="M0 0 C0.66 0.33 1.32 0.66 2 1 C2.054138 3.24973447 2.09285491 5.49984383 2.125 7.75 C2.14820313 9.00296875 2.17140625 10.2559375 2.1953125 11.546875 C2.01537302 14.72820492 1.68998582 16.36521896 0 19 C-1.09587955 14.75448144 -0.92865836 11.0407161 -0.5625 6.6875 C-0.46066406 5.43324219 -0.35882813 4.17898438 -0.25390625 2.88671875 C-0.17011719 1.93410156 -0.08632813 0.98148438 0 0 Z " fill="#C7959E" transform="translate(471,623)"/>
<path d="M0 0 C0.99 0 1.98 0 3 0 C2.649375 0.7425 2.29875 1.485 1.9375 2.25 C0.88908084 4.84112791 0.88908084 4.84112791 1 7.0625 C2.55044848 10.06649393 5.18076447 11.26047169 8 13 C8 13.33 8 13.66 8 14 C6.35 14 4.7 14 3 14 C3 13.34 3 12.68 3 12 C2.01 12 1.02 12 0 12 C-2.21538462 5.72307692 -2.21538462 5.72307692 -1.125 2.0625 C-0.75375 1.381875 -0.3825 0.70125 0 0 Z " fill="#C58C94" transform="translate(386,525)"/>
<path d="M0 0 C-0.33 0.66 -0.66 1.32 -1 2 C-1.86625 1.835 -2.7325 1.67 -3.625 1.5 C-8.06754556 0.8418451 -11.71478102 0.57159367 -16 2 C-16 1.34 -16 0.68 -16 0 C-16.66 -0.33 -17.32 -0.66 -18 -1 C-10.77606588 -3.40797804 -7.01812325 -2.44818253 0 0 Z " fill="#C78E97" transform="translate(516,442)"/>
<path d="M0 0 C0.33 0.99 0.66 1.98 1 3 C0.34 3 -0.32 3 -1 3 C-1.226875 3.721875 -1.45375 4.44375 -1.6875 5.1875 C-3.28769648 8.61649245 -5.06414743 10.62335744 -8 13 C-10.3125 12.8125 -10.3125 12.8125 -12 12 C-11.319375 11.505 -10.63875 11.01 -9.9375 10.5 C-6.21041414 7.32801203 -3.14666758 3.73610099 0 0 Z " fill="#E7CBCF" transform="translate(617,402)"/>
<path d="M0 0 C0.33 0.66 0.66 1.32 1 2 C1.66 2 2.32 2 3 2 C3 6.29 3 10.58 3 15 C2.67 15 2.34 15 2 15 C1.67 13.02 1.34 11.04 1 9 C0.34 9.66 -0.32 10.32 -1 11 C-1.02688151 9.35425434 -1.04634123 7.70838587 -1.0625 6.0625 C-1.07410156 5.14597656 -1.08570313 4.22945312 -1.09765625 3.28515625 C-1 1 -1 1 0 0 Z " fill="#C87986" transform="translate(404,573)"/>
<path d="M0 0 C0.99 0.33 1.98 0.66 3 1 C0.03 7.93 0.03 7.93 -3 15 C-3.33 15 -3.66 15 -4 15 C-4 11.7 -4 8.4 -4 5 C-3.01 5 -2.02 5 -1 5 C-0.67 3.35 -0.34 1.7 0 0 Z " fill="#C68D96" transform="translate(413,441)"/>
<path d="M0 0 C0.33 0 0.66 0 1 0 C0.51845826 6.18400967 -0.1637973 12.05934422 -2 18 C-2.66 18.33 -3.32 18.66 -4 19 C-3.46048934 12.31006781 -2.11293829 6.36539272 0 0 Z " fill="#C8919C" transform="translate(474,338)"/>
<path d="M0 0 C4.29 1.32 8.58 2.64 13 4 C13 4.99 13 5.98 13 7 C7.72 5.68 2.44 4.36 -3 3 C-2.01 2.01 -1.02 1.02 0 0 Z " fill="#F8E4E7" transform="translate(432,305)"/>
<path d="M0 0 C2 0 2 0 4.5625 2.375 C7 5 7 5 8 7 C11.04581269 7.46954261 11.04581269 7.46954261 14.5625 7.625 C15.76003906 7.69976563 16.95757812 7.77453125 18.19140625 7.8515625 C19.11824219 7.90054688 20.04507812 7.94953125 21 8 C21 8.33 21 8.66 21 9 C7.93327546 9.77241721 7.93327546 9.77241721 2 5 C0.5625 2.25 0.5625 2.25 0 0 Z " fill="#F8E1E5" transform="translate(409,591)"/>
<path d="M0 0 C0.33 0 0.66 0 1 0 C1.31461385 7.09629025 1.44572039 12.68284595 -2 19 C-2.66 19 -3.32 19 -4 19 C-2.02 9.595 -2.02 9.595 0 0 Z " fill="#F6E4E6" transform="translate(589,515)"/>
<path d="M0 0 C0.99 0.33 1.98 0.66 3 1 C3 1.66 3 2.32 3 3 C3.5775 3.20625 4.155 3.4125 4.75 3.625 C7.863127 5.5274665 9.20739939 7.86294893 11 11 C11 11.99 11 12.98 11 14 C6.80312307 10.04999819 3.24385836 5.77103566 0 1 C0 0.67 0 0.34 0 0 Z " fill="#C5909A" transform="translate(398,392)"/>
<path d="M0 0 C1.32 0.33 2.64 0.66 4 1 C6.125 7.625 6.125 7.625 5 11 C4.34 11 3.68 11 3 11 C0 4.5 0 4.5 0 0 Z " fill="#C07D8C" transform="translate(378,351)"/>
<path d="M0 0 C0.96272561 2.5672683 1.14859998 3.64386164 0.07421875 6.21875 C-0.61220703 7.34796875 -0.61220703 7.34796875 -1.3125 8.5 C-3.28455269 11.77313705 -3.28455269 11.77313705 -4.91796875 15.21875 C-6 17 -6 17 -8.125 17.75 C-9.053125 17.87375 -9.053125 17.87375 -10 18 C-9.29423828 16.93072266 -9.29423828 16.93072266 -8.57421875 15.83984375 C-5.22147067 10.68230375 -2.17615654 5.76041438 0 0 Z " fill="#F8E2E6" transform="translate(537,396)"/>
<path d="M0 0 C1.485 0.99 1.485 0.99 3 2 C4.32 2 5.64 2 7 2 C7.0825 2.78375 7.165 3.5675 7.25 4.375 C7.72323153 7.12283152 7.72323153 7.12283152 9.9375 8.25 C10.618125 8.4975 11.29875 8.745 12 9 C12.66 9.33 13.32 9.66 14 10 C13.67 10.66 13.34 11.32 13 12 C11.01402714 10.5711779 9.03649356 9.13270528 7.0625 7.6875 C6.49853516 7.28337891 5.93457031 6.87925781 5.35351562 6.46289062 C1.11328125 3.33984375 1.11328125 3.33984375 0 0 Z " fill="#C28992" transform="translate(424,672)"/>
<path d="M0 0 C1.33333333 0.33333333 2.66666667 0.66666667 4 1 C4.680625 1.12375 5.36125 1.2475 6.0625 1.375 C8.36951432 2.11919817 9.42674348 3.190755 11 5 C10.67 5.99 10.34 6.98 10 8 C6.05205855 6.32971708 3.18203882 3.8204435 0 1 C0 0.67 0 0.34 0 0 Z " fill="#C58992" transform="translate(413,664)"/>
<path d="M0 0 C0.66 0.66 1.32 1.32 2 2 C-0.64 4.31 -3.28 6.62 -6 9 C-6.33 7.68 -6.66 6.36 -7 5 C-4.78065836 1.67098753 -3.65316671 1.24976756 0 0 Z " fill="#C2868F" transform="translate(593,665)"/>
<path d="M0 0 C2 3 2 3 3 6 C3.66 6.33 4.32 6.66 5 7 C5.40729228 9.32156597 5.74438677 11.6568787 6 14 C-2 4.28571429 -2 4.28571429 -2 1 C-1.34 0.67 -0.68 0.34 0 0 Z " fill="#C18490" transform="translate(367,606)"/>
<path d="M0 0 C3.02093215 3.02093215 2.46676834 6.56372072 2.625 10.625 C2.66367187 11.42679687 2.70234375 12.22859375 2.7421875 13.0546875 C2.83653931 15.03607556 2.91936215 17.01800645 3 19 C1.08239215 15.58531234 0.15906899 12.17422229 -0.75 8.375 C-1.03359375 7.22773438 -1.3171875 6.08046875 -1.609375 4.8984375 C-1.80273438 3.46371094 -1.80273438 3.46371094 -2 2 C-1.34 1.34 -0.68 0.68 0 0 Z " fill="#FAEAEB" transform="translate(419,347)"/>
<path d="M0 0 C-3.80434131 3.01723621 -7.20982209 4.24365612 -12 5 C-12.33 4.67 -12.66 4.34 -13 4 C-14.32594105 3.63837971 -15.65938457 3.30271961 -17 3 C-14.54383175 2.30378686 -12.0855877 1.61775372 -9.625 0.9375 C-8.57699219 0.63875977 -8.57699219 0.63875977 -7.5078125 0.33398438 C-2.2265625 -1.11328125 -2.2265625 -1.11328125 0 0 Z " fill="#F8E4E7" transform="translate(567,431)"/>
<path d="M0 0 C0.66 0 1.32 0 2 0 C0.55007731 4.10811428 -1.45407573 7.46855666 -4 11 C-4.33 11 -4.66 11 -5 11 C-6.125 5.25 -6.125 5.25 -5 3 C-3.02 3.495 -3.02 3.495 -1 4 C-0.67 2.68 -0.34 1.36 0 0 Z " fill="#F9EBEC" transform="translate(540,406)"/>
<path d="M0 0 C2.97 0.99 5.94 1.98 9 3 C9 3.33 9 3.66 9 4 C3.06 4 -2.88 4 -9 4 C-9 3.67 -9 3.34 -9 3 C-6.03 3 -3.06 3 0 3 C0 2.01 0 1.02 0 0 Z " fill="#CAA1A9" transform="translate(475,432)"/>
<path d="M0 0 C1.10348268 3.31044803 0.99444068 5.65506316 0 9 C-0.99 9.495 -0.99 9.495 -2 10 C-2.65555119 12.52733235 -2.65555119 12.52733235 -3 15 C-3.99 15 -4.98 15 -6 15 C-4.36041242 9.76727367 -2.61047965 4.84803364 0 0 Z " fill="#C88F99" transform="translate(482,319)"/>
<path d="M0 0 C3.25524265 3.02272532 5.61820737 6.25718301 8 10 C6.68 10 5.36 10 4 10 C4 9.34 4 8.68 4 8 C2.68 7.67 1.36 7.34 0 7 C0 4.69 0 2.38 0 0 Z " fill="#C98D99" transform="translate(592,608)"/>
<path d="M0 0 C1.84790538 3.31016094 2.74541487 6.57173491 3.625 10.25 C4.01558594 11.86648438 4.01558594 11.86648438 4.4140625 13.515625 C4.60742188 14.33546875 4.80078125 15.1553125 5 16 C4.01 15.67 3.02 15.34 2 15 C0.00813631 9.86308839 -0.1921227 5.47549707 0 0 Z " fill="#F6DDE1" transform="translate(337,545)"/>
<path d="M0 0 C0.99 0.99 1.98 1.98 3 3 C2.01 5.31 1.02 7.62 0 10 C-0.66 10 -1.32 10 -2 10 C-2.33 10.99 -2.66 11.98 -3 13 C-2.52060632 8.28596212 -2.03165952 4.33420699 0 0 Z " fill="#F7E7E8" transform="translate(411,451)"/>
<path d="M0 0 C0 3 0 3 -2 6 C-2.99 6 -3.98 6 -5 6 C-5 6.66 -5 7.32 -5 8 C-5.99 8 -6.98 8 -8 8 C-8 8.66 -8 9.32 -8 10 C-9.32 9.67 -10.64 9.34 -12 9 C-11.21753906 8.43410156 -10.43507813 7.86820312 -9.62890625 7.28515625 C-8.61699219 6.55167969 -7.60507812 5.81820313 -6.5625 5.0625 C-5.55316406 4.33160156 -4.54382813 3.60070312 -3.50390625 2.84765625 C-1.17707392 1.22678115 -1.17707392 1.22678115 0 0 Z " fill="#C18990" transform="translate(560,416)"/>
<path d="M0 0 C0.66 0 1.32 0 2 0 C2.20496094 0.71027344 2.40992188 1.42054688 2.62109375 2.15234375 C2.89050781 3.07144531 3.15992188 3.99054688 3.4375 4.9375 C3.70433594 5.85402344 3.97117187 6.77054687 4.24609375 7.71484375 C4.79026051 9.9402493 4.79026051 9.9402493 6 11 C6.04080783 12.99958364 6.04254356 15.00045254 6 17 C3.97774806 13.9666221 3.00652476 11.38655511 1.875 7.9375 C1.52179688 6.87402344 1.16859375 5.81054688 0.8046875 4.71484375 C0 2 0 2 0 0 Z " fill="#C88E9A" transform="translate(429,360)"/>
<path d="M0 0 C3.465 1.98 3.465 1.98 7 4 C5.35 5.65 3.7 7.3 2 9 C1.22678118 6.01758453 0.58803797 3.02419525 0 0 Z M-1 5 C-0.34 5 0.32 5 1 5 C0.67 5.66 0.34 6.32 0 7 C-0.33 6.34 -0.66 5.68 -1 5 Z " fill="#CB8995" transform="translate(613,631)"/>
<path d="M0 0 C7.26 0.33 14.52 0.66 22 1 C22 1.33 22 1.66 22 2 C19.0837882 2.22201613 16.16792256 2.42808498 13.25 2.625 C12.425 2.68945312 11.6 2.75390625 10.75 2.8203125 C9.95078125 2.871875 9.1515625 2.9234375 8.328125 2.9765625 C7.22839355 3.05511475 7.22839355 3.05511475 6.10644531 3.13525391 C3.65224559 2.97767085 2.11146787 2.22264839 0 1 C0 0.67 0 0.34 0 0 Z " fill="#D09AA5" transform="translate(519,443)"/>
<path d="M0 0 C3.7952131 1.49097658 5.61042731 3.75700849 8 7 C2.25 6.125 2.25 6.125 0 5 C0 3.35 0 1.7 0 0 Z " fill="#BD8C91" transform="translate(476,419)"/>
<path d="M0 0 C0 3.38023517 -0.87455622 5.83468937 -2 9 C-3.98 9 -5.96 9 -8 9 C-7.04270084 7.87411986 -6.08412105 6.7493285 -5.125 5.625 C-4.59132813 4.99851562 -4.05765625 4.37203125 -3.5078125 3.7265625 C-2.38567993 2.44163349 -1.20628025 1.20628025 0 0 Z " fill="#C98D99" transform="translate(569,407)"/>
<path d="M0 0 C-1.77945087 4.04420651 -4.39529673 7.46078487 -7 11 C-8 8 -8 8 -7.3125 5.5 C-5.64233473 2.31873282 -3.77759606 0 0 0 Z " fill="#C28490" transform="translate(570,390)"/>
<path d="M0 0 C0.99 0.33 1.98 0.66 3 1 C3 1.99 3 2.98 3 4 C3.66 4 4.32 4 5 4 C5 4.99 5 5.98 5 7 C5.66 7 6.32 7 7 7 C7.33 9.31 7.66 11.62 8 14 C4.17398376 9.76405345 2.13637096 5.21592698 0 0 Z " fill="#C48994" transform="translate(384,368)"/>
<path d="M0 0 C4.43458973 1.3937282 6.87378374 3.60582235 10 7 C9.34 7.66 8.68 8.32 8 9 C6.66368764 7.6905332 5.33102075 6.37734515 4 5.0625 C3.2575 4.33160156 2.515 3.60070312 1.75 2.84765625 C0 1 0 1 0 0 Z " fill="#C78F97" transform="translate(403,655)"/>
<path d="M0 0 C0.66 0.33 1.32 0.66 2 1 C1.88512252 2.58409994 1.75765492 4.16728963 1.625 5.75 C1.52058594 7.07257812 1.52058594 7.07257812 1.4140625 8.421875 C1.00149945 10.99066382 0.28839043 12.75841015 -1 15 C-2.20220203 11.46905698 -1.79532349 8.87101018 -1.0625 5.25 C-0.86785156 4.26515625 -0.67320312 3.2803125 -0.47265625 2.265625 C-0.31667969 1.51796875 -0.16070313 0.7703125 0 0 Z " fill="#E8CCCF" transform="translate(676,519)"/>
<path d="M0 0 C-3.07999946 3.67230705 -5.2482602 4.56802365 -10 5 C-10.33 4.34 -10.66 3.68 -11 3 C-9.73581754 2.30034557 -8.46334598 1.61565237 -7.1875 0.9375 C-6.47980469 0.55464844 -5.77210938 0.17179687 -5.04296875 -0.22265625 C-3 -1 -3 -1 0 0 Z " fill="#C48B95" transform="translate(347,401)"/>
<path d="M0 0 C2.6855594 2.6855594 3.06049974 5.37621328 4 9 C2.02 9.99 2.02 9.99 0 11 C0 7.37 0 3.74 0 0 Z " fill="#F8E8EA" transform="translate(378,355)"/>
<path d="M0 0 C1.80030122 2.70045182 2.93377066 5.06677881 4.125 8.0625 C4.47820313 8.94035156 4.83140625 9.81820312 5.1953125 10.72265625 C6 13 6 13 6 15 C3 14 3 14 2.05078125 12.109375 C-0.41063747 4.24325381 -0.41063747 4.24325381 0 0 Z " fill="#CA99A1" transform="translate(583,587)"/>
<path d="M0 0 C-1.59766103 0.86627399 -3.20339944 1.71766465 -4.8125 2.5625 C-5.70582031 3.03816406 -6.59914063 3.51382812 -7.51953125 4.00390625 C-10 5 -10 5 -13 4 C-9.80252047 -0.13791468 -4.89181987 -1.63060662 0 0 Z " fill="#C99199" transform="translate(578,425)"/>
<path d="M0 0 C3.80635497 3.20760251 7.54563567 6.40746109 11 10 C7.84918025 10 6.58152302 9.72101535 4 8 C3.25 5.875 3.25 5.875 3 4 C2.34 4 1.68 4 1 4 C0.67 2.68 0.34 1.36 0 0 Z " fill="#C38894" transform="translate(402,412)"/>
<path d="M0 0 C0.66 0 1.32 0 2 0 C1.03644647 10.55808656 1.03644647 10.55808656 0 15 C-0.66 14.34 -1.32 13.68 -2 13 C-1.6875 10.3125 -1.6875 10.3125 -1 7 C-0.66140041 4.66742506 -0.3267961 2.33425788 0 0 Z " fill="#C38591" transform="translate(583,342)"/>
<path d="M0 0 C7.57142857 1.85714286 7.57142857 1.85714286 10 5 C8.375 5.6875 8.375 5.6875 6 6 C2.75 4.5625 2.75 4.5625 0 3 C0 2.01 0 1.02 0 0 Z " fill="#E5D0D1" transform="translate(488,710)"/>
<path d="M0 0 C0 3.64478912 -0.85802506 5.09303401 -3 8 C-5.1875 8.8125 -5.1875 8.8125 -7 9 C-7 6 -7 6 -5.46875 4.39453125 C-4.49421875 3.61142578 -4.49421875 3.61142578 -3.5 2.8125 C-2.8503125 2.28269531 -2.200625 1.75289062 -1.53125 1.20703125 C-1.0259375 0.80871094 -0.520625 0.41039062 0 0 Z " fill="#F9E8E9" transform="translate(601,661)"/>
<path d="M0 0 C4.75 1.875 4.75 1.875 7 3 C7 3.66 7 4.32 7 5 C7.99 5.33 8.98 5.66 10 6 C10.33 6.99 10.66 7.98 11 9 C8.03469503 7.64199529 5.70868729 6.07571737 3.25 3.9375 C2.63640625 3.41027344 2.0228125 2.88304687 1.390625 2.33984375 C0.93171875 1.89769531 0.4728125 1.45554687 0 1 C0 0.67 0 0.34 0 0 Z " fill="#F9E3E5" transform="translate(606,624)"/>
<path d="M0 0 C1.98 0.99 1.98 0.99 4 2 C3.88590407 3.45922693 3.75834456 4.91740598 3.625 6.375 C3.55539062 7.18710937 3.48578125 7.99921875 3.4140625 8.8359375 C3 11 3 11 1 13 C0.29826347 8.61414671 -0.10834375 4.44209357 0 0 Z " fill="#C898A2" transform="translate(399,557)"/>
<path d="M0 0 C2.64465038 3.1254959 3.84414715 6.08788267 5 10 C3.68 9.67 2.36 9.34 1 9 C0.67 6.03 0.34 3.06 0 0 Z " fill="#C58F9B" transform="translate(426,381)"/>
<path d="M0 0 C0.99 0.33 1.98 0.66 3 1 C2.01 1.495 2.01 1.495 1 2 C0.67 2.99 0.34 3.98 0 5 C-1.98 5 -3.96 5 -6 5 C-2.25 1.125 -2.25 1.125 0 0 Z " fill="#FBE9EA" transform="translate(557,693)"/>
<path d="M0 0 C1.90368048 2.79953012 1.99184124 4.15773599 1.8125 7.625 C1 11 1 11 -2 13 C-1.48041715 8.62065881 -0.94324258 4.31196609 0 0 Z " fill="#E1C7C8" transform="translate(598,523)"/>
<path d="M0 0 C0.66 0.33 1.32 0.66 2 1 C-0.31 4.63 -2.62 8.26 -5 12 C-5.33 10.68 -5.66 9.36 -6 8 C-5.01 7.67 -4.02 7.34 -3 7 C-3 6.01 -3 5.02 -3 4 C-2.34 4 -1.68 4 -1 4 C-0.67 2.68 -0.34 1.36 0 0 Z " fill="#C38893" transform="translate(534,400)"/>
<path d="M0 0 C0.33 0 0.66 0 1 0 C2.23316062 5.19689119 2.23316062 5.19689119 2 8 C0.23017948 10.29259828 -1.53077209 11.387443 -4 13 C-3.79503906 12.39671875 -3.59007812 11.7934375 -3.37890625 11.171875 C-2.97478516 9.97304688 -2.97478516 9.97304688 -2.5625 8.75 C-2.29566406 7.96109375 -2.02882813 7.1721875 -1.75390625 6.359375 C-1.08045292 4.25178012 -0.50849405 2.15246027 0 0 Z " fill="#C8909A" transform="translate(587,372)"/>
<path d="M0 0 C1.12894876 0.93274109 2.25300876 1.87140122 3.375 2.8125 C4.00148438 3.33457031 4.62796875 3.85664062 5.2734375 4.39453125 C7 6 7 6 9 9 C6.75 8.875 6.75 8.875 4 8 C0 2.91891892 0 2.91891892 0 0 Z " fill="#C38A94" transform="translate(600,619)"/>
<path d="M0 0 C1.32 0.99 2.64 1.98 4 3 C3.44855089 7.08072342 3.08669204 7.91330796 0 11 C0 7.37 0 3.74 0 0 Z " fill="#C2909A" transform="translate(398,541)"/>
<path d="M0 0 C2.31 0.33 4.62 0.66 7 1 C7 1.66 7 2.32 7 3 C8.32 3 9.64 3 11 3 C11.33 3.99 11.66 4.98 12 6 C7.76570244 4.68938409 3.92592596 3.05643741 0 1 C0 0.67 0 0.34 0 0 Z " fill="#C78F9B" transform="translate(430,423)"/>
<path d="M0 0 C-1.28813342 0.83878455 -2.58063256 1.67086783 -3.875 2.5 C-4.59429688 2.9640625 -5.31359375 3.428125 -6.0546875 3.90625 C-8 5 -8 5 -10 5 C-10 4.01 -10 3.02 -10 2 C-8.68 2 -7.36 2 -6 2 C-6 1.34 -6 0.68 -6 0 C-3.50907189 -1.24546405 -2.58919267 -0.7767578 0 0 Z " fill="#C38B93" transform="translate(570,686)"/>
<path d="M0 0 C2.76223278 2.76223278 2.57856291 5.20706617 3 9 C-1.875 4.25 -1.875 4.25 -3 2 C-2.01 1.34 -1.02 0.68 0 0 Z " fill="#C98E96" transform="translate(389,635)"/>
<path d="M0 0 C1.98 0.99 3.96 1.98 6 3 C6 5.97 6 8.94 6 12 C5.67 12 5.34 12 5 12 C5 10.02 5 8.04 5 6 C4.34 6 3.68 6 3 6 C2.67 5.01 2.34 4.02 2 3 C1.34 2.67 0.68 2.34 0 2 C0 1.34 0 0.68 0 0 Z " fill="#C28B92" transform="translate(402,569)"/>
<path d="M0 0 C0.33 0 0.66 0 1 0 C1.95261487 4.76307437 2.08333357 9.1666528 2 14 C-0.26442549 10.07499582 -1.39461862 6.14221535 -0.5625 1.625 C-0.376875 1.08875 -0.19125 0.5525 0 0 Z " fill="#F3DBDF" transform="translate(331,514)"/>
<path d="M0 0 C0 0.66 0 1.32 0 2 C0.66 2.33 1.32 2.66 2 3 C0.35 3.33 -1.3 3.66 -3 4 C-3 3.67 -3 3.34 -3 3 C-5.97 2.505 -5.97 2.505 -9 2 C-9 1.67 -9 1.34 -9 1 C-5.846632 0.29925156 -3.27275026 0 0 0 Z M2 1 C4 2 4 2 4 2 Z " fill="#C5858F" transform="translate(500,442)"/>
<path d="M0 0 C1 3 1 3 -0.125 5.6875 C-2 8 -2 8 -4.6875 8.3125 C-5.450625 8.209375 -6.21375 8.10625 -7 8 C-6.02133662 6.85373678 -5.04205413 5.70800212 -4.0625 4.5625 C-3.51722656 3.92441406 -2.97195313 3.28632813 -2.41015625 2.62890625 C-1.63204305 1.73008851 -0.84063472 0.84063472 0 0 Z " fill="#F8EAED" transform="translate(526,414)"/>
<path d="M0 0 C2 3.75 2 3.75 2 6 C1.34 6 0.68 6 0 6 C0 5.34 0 4.68 0 4 C-2.97 3.67 -5.94 3.34 -9 3 C-9 2.67 -9 2.34 -9 2 C-6.03 2 -3.06 2 0 2 C0 1.34 0 0.68 0 0 Z " fill="#F7E6E9" transform="translate(635,346)"/>
<path d="M0 0 C1.6875 2.1875 1.6875 2.1875 1.6875 4.1875 C-1.77175163 2.9383258 -4.45943203 1.51222205 -7.3125 -0.8125 C-3.91460918 -1.94513027 -2.90750063 -2.27885184 0 0 Z " fill="#F8E5E6" transform="translate(462.3125,316.8125)"/>
<path d="M0 0 C0.99 0.33 1.98 0.66 3 1 C4.6900877 4.80269732 5.19873962 7.05272168 4 11 C3.32591692 9.73308493 2.66099503 8.46129251 2 7.1875 C1.62875 6.47980469 1.2575 5.77210938 0.875 5.04296875 C0 3 0 3 0 0 Z " fill="#BF8591" transform="translate(350,579)"/>
<path d="M0 0 C1.8125 0.1875 1.8125 0.1875 4 1 C5.75 3.5625 5.75 3.5625 7 6 C6.34 6.66 5.68 7.32 5 8 C0 2.25 0 2.25 0 0 Z " fill="#BF7F8B" transform="translate(481,408)"/>
<path d="M0 0 C1.58323688 -0.027193 3.16661062 -0.04648306 4.75 -0.0625 C6.07257812 -0.07990234 6.07257812 -0.07990234 7.421875 -0.09765625 C9.7818838 -0.00826198 11.74498524 0.33087179 14 1 C13.67 1.99 13.34 2.98 13 4 C12.34 3.690625 11.68 3.38125 11 3.0625 C7.29523985 1.75039745 3.90736009 1.39735865 0 1 C0 0.67 0 0.34 0 0 Z " fill="#BE8790" transform="translate(620,349)"/>
<path d="M0 0 C3.08089673 2.77280706 4.68775452 5.06326356 6 9 C5.01 9.33 4.02 9.66 3 10 C0 3.375 0 3.375 0 0 Z " fill="#C58D95" transform="translate(518,300)"/>
<path d="M0 0 C-2.40921705 2.40921705 -4.94334509 3.53812156 -8 5 C-8.33 4.34 -8.66 3.68 -9 3 C-6.07868595 -0.19953443 -4.37453972 -1.45817991 0 0 Z " fill="#FCEAEC" transform="translate(338,403)"/>
<path d="M0 0 C0.99552499 3.09718886 0.89921243 4.90271275 0 8 C0 8.99 0 9.98 0 11 C-0.99 11.66 -1.98 12.32 -3 13 C-2.343621 8.51474352 -1.29925791 4.33085971 0 0 Z " fill="#F6E2E5" transform="translate(469,325)"/>
<path d="M0 0 C2.0625 2.3125 2.0625 2.3125 4 5 C3.67 5.99 3.34 6.98 3 8 C0.52557871 5.84832931 -0.56238367 4.28212246 -1 1 C-0.67 0.67 -0.34 0.34 0 0 Z " fill="#FBEBEF" transform="translate(538,679)"/>
<path d="M0 0 C2.875 0.625 2.875 0.625 6 2 C7.375 5.125 7.375 5.125 8 8 C6.85073734 7.04578192 5.70569459 6.08647955 4.5625 5.125 C3.92441406 4.59132813 3.28632813 4.05765625 2.62890625 3.5078125 C1 2 1 2 0 0 Z " fill="#C0868F" transform="translate(479,544)"/>
<path d="M0 0 C2.475 0.99 2.475 0.99 5 2 C5 2.66 5 3.32 5 4 C5.99 4.33 6.98 4.66 8 5 C7.67 5.99 7.34 6.98 7 8 C5.83035398 6.8572081 4.66435444 5.71068285 3.5 4.5625 C2.8503125 3.92441406 2.200625 3.28632812 1.53125 2.62890625 C0 1 0 1 0 0 Z " fill="#C08590" transform="translate(454,520)"/>
<path d="M0 0 C0.66 0.33 1.32 0.66 2 1 C2.33333333 2.66666667 2.66666667 4.33333333 3 6 C3.66 6.33 4.32 6.66 5 7 C4.01 7.33 3.02 7.66 2 8 C0.4375 6.25 0.4375 6.25 -1 4 C-0.6875 1.75 -0.6875 1.75 0 0 Z " fill="#F8EBEB" transform="translate(473,408)"/>
<path d="M0 0 C-1.65 1.65 -3.3 3.3 -5 5 C-5.66 3.68 -6.32 2.36 -7 1 C-3.375 -1.125 -3.375 -1.125 0 0 Z " fill="#CA8995" transform="translate(559,405)"/>
<path d="M0 0 C0.66 0 1.32 0 2 0 C3.25 6.625 3.25 6.625 1 10 C0.67 6.7 0.34 3.4 0 0 Z " fill="#CC9BA3" transform="translate(549,347)"/>
<path d="M0 0 C1.32 0.66 2.64 1.32 4 2 C2.71034824 3.37562854 1.37310707 4.70766393 0 6 C-0.66 6 -1.32 6 -2 6 C-2 5.01 -2 4.02 -2 3 C-1.34 3 -0.68 3 0 3 C0 2.01 0 1.02 0 0 Z " fill="#CC98A1" transform="translate(603,655)"/>
<path d="M0 0 C4.875 2.75 4.875 2.75 6 5 C3.69 4.67 1.38 4.34 -1 4 C-0.67 2.68 -0.34 1.36 0 0 Z " fill="#F6E3E6" transform="translate(476,543)"/>
<path d="M0 0 C0.99 0.495 0.99 0.495 2 1 C2.40729228 3.32156597 2.74438677 5.6568787 3 8 C2.01 8 1.02 8 0 8 C0 5.36 0 2.72 0 0 Z " fill="#F5DCDF" transform="translate(422,466)"/>
<path d="M0 0 C0.33 0.66 0.66 1.32 1 2 C1.66 2.33 2.32 2.66 3 3 C1.03533587 4.06775224 -0.96855359 5.06553465 -3 6 C-3.66 5.67 -4.32 5.34 -5 5 C-3.35 3.35 -1.7 1.7 0 0 Z " fill="#C0A3A6" transform="translate(531,421)"/>
<path d="M0 0 C0.99 0.33 1.98 0.66 3 1 C1.02 3.31 -0.96 5.62 -3 8 C-3.66 7.34 -4.32 6.68 -5 6 C-4.360625 5.7525 -3.72125 5.505 -3.0625 5.25 C-0.81258459 4.18437567 -0.81258459 4.18437567 -0.25 1.875 C-0.1675 1.25625 -0.085 0.6375 0 0 Z " fill="#FAE3E7" transform="translate(571,401)"/>
<path d="M0 0 C0.99 0.66 1.98 1.32 3 2 C-0.3 3.32 -3.6 4.64 -7 6 C-7 5.34 -7 4.68 -7 4 C-4.69 2.68 -2.38 1.36 0 0 Z " fill="#FCE9EC" transform="translate(350,395)"/>
<path d="M0 0 C2.31 0.33 4.62 0.66 7 1 C6.67 1.99 6.34 2.98 6 4 C4.125 3.6875 4.125 3.6875 2 3 C1.34 2.01 0.68 1.02 0 0 Z " fill="#F4E4E6" transform="translate(511,290)"/>
<path d="M0 0 C2.64 0.66 5.28 1.32 8 2 C7.01 2.99 6.02 3.98 5 5 C3.0625 4.1875 3.0625 4.1875 1 3 C0.67 2.01 0.34 1.02 0 0 Z " fill="#C49097" transform="translate(547,692)"/>
<path d="M0 0 C2.31 1.65 4.62 3.3 7 5 C5.02 5.99 5.02 5.99 3 7 C0 3.375 0 3.375 0 0 Z " fill="#F8E5E6" transform="translate(419,670)"/>
<path d="M0 0 C0.66 0 1.32 0 2 0 C2.66 1.98 3.32 3.96 4 6 C2.68 5.67 1.36 5.34 0 5 C0 3.35 0 1.7 0 0 Z " fill="#C28591" transform="translate(588,602)"/>
<path d="M0 0 C0.66 0 1.32 0 2 0 C3.35439668 2.70879335 3.06501451 5.00933268 3 8 C2.01 7.34 1.02 6.68 0 6 C-0.1875 2.875 -0.1875 2.875 0 0 Z " fill="#C0878E" transform="translate(579,439)"/>
<path d="M0 0 C0.66 0.33 1.32 0.66 2 1 C2 1.99 2 2.98 2 4 C-0.31 4.33 -2.62 4.66 -5 5 C-3.35 3.35 -1.7 1.7 0 0 Z " fill="#F9E3E7" transform="translate(590,416)"/>
<path d="M0 0 C1.65 0 3.3 0 5 0 C5.33 1.65 5.66 3.3 6 5 C1.125 2.25 1.125 2.25 0 0 Z " fill="#C69197" transform="translate(415,412)"/>
<path d="M0 0 C1.32 0 2.64 0 4 0 C5.75 2.5 5.75 2.5 7 5 C6.01 5 5.02 5 4 5 C1.8125 2.5 1.8125 2.5 0 0 Z " fill="#C58D98" transform="translate(409,406)"/>
<path d="M0 0 C2.79872437 2.52788007 4.45773019 4.20411134 5 8 C3.0625 7.375 3.0625 7.375 1 6 C0.25 2.875 0.25 2.875 0 0 Z " fill="#C38791" transform="translate(431,392)"/>
<path d="M0 0 C1.1875 1.6875 1.1875 1.6875 2 4 C0.625 6.75 0.625 6.75 -1 9 C-1.33 7.68 -1.66 6.36 -2 5 C-1.34 5 -0.68 5 0 5 C-0.2784375 4.0409375 -0.2784375 4.0409375 -0.5625 3.0625 C-0.7790625 2.0415625 -0.7790625 2.0415625 -1 1 C-0.67 0.67 -0.34 0.34 0 0 Z " fill="#BF7B87" transform="translate(573,377)"/>
<path d="M0 0 C0.66 0.33 1.32 0.66 2 1 C0.515 4.96 0.515 4.96 -1 9 C-1.66 9 -2.32 9 -3 9 C-2.67 7.35 -2.34 5.7 -2 4 C-1.34 4 -0.68 4 0 4 C0 2.68 0 1.36 0 0 Z " fill="#C38892" transform="translate(577,370)"/>
<path d="M0 0 C1.0625 1.875 1.0625 1.875 2 4 C1.67 4.66 1.34 5.32 1 6 C0.34 6 -0.32 6 -1 6 C-1.66 4.35 -2.32 2.7 -3 1 C-2.01 0.67 -1.02 0.34 0 0 Z " fill="#F8EDED" transform="translate(525,303)"/>
</svg>
